<svg width="56" height="56" viewBox="0 0 56 56" fill="none" xmlns="http://www.w3.org/2000/svg">
<path d="M24.4272 2.12056C26.6297 0.813315 29.3703 0.813314 31.5728 2.12056L40.04 7.14611L48.6259 11.9661C50.8592 13.2199 52.2295 15.5934 52.1986 18.1544L52.08 28L52.1986 37.8456C52.2295 40.4066 50.8592 42.7801 48.6259 44.0338L40.04 48.8539L31.5728 53.8794C29.3703 55.1867 26.6297 55.1867 24.4272 53.8794L15.96 48.8539L7.37415 44.0339C5.14079 42.7801 3.77049 40.4066 3.80135 37.8456L3.92 28L3.80135 18.1544C3.77049 15.5934 5.14079 13.2199 7.37415 11.9662L15.96 7.14611L24.4272 2.12056Z" fill="#FF8FC1"/>
<path d="M38.1538 22.0905H34.1154C34.6968 21.3432 34.9775 20.3991 34.9006 19.4492C34.8237 18.4993 34.395 17.6146 33.7013 16.9743C33.0076 16.334 32.1007 15.9859 31.1643 16.0004C30.2278 16.015 29.3318 16.3912 28.6577 17.0528C28.3858 17.333 28.1633 17.6587 28 18.0157C27.8367 17.6587 27.6142 17.333 27.3423 17.0528C26.6682 16.3912 25.7722 16.015 24.8357 16.0004C23.8993 15.9859 22.9924 16.334 22.2987 16.9743C21.605 17.6146 21.1763 18.4993 21.0994 19.4492C21.0225 20.3991 21.3032 21.3432 21.8846 22.0905H17.8462C17.3565 22.0905 16.8869 22.2884 16.5407 22.6408C16.1945 22.9931 16 23.471 16 23.9693V27.727C16 28.2253 16.1945 28.7032 16.5407 29.0555C16.8869 29.4079 17.3565 29.6058 17.8462 29.6058V37.1212C17.8462 37.6195 18.0407 38.0973 18.3869 38.4497C18.7331 38.8021 19.2027 39 19.6923 39H36.3077C36.7973 39 37.2669 38.8021 37.6131 38.4497C37.9593 38.0973 38.1538 37.6195 38.1538 37.1212V29.6058C38.6435 29.6058 39.1131 29.4079 39.4593 29.0555C39.8055 28.7032 40 28.2253 40 27.727V23.9693C40 23.471 39.8055 22.9931 39.4593 22.6408C39.1131 22.2884 38.6435 22.0905 38.1538 22.0905ZM29.9615 18.3797C30.1295 18.1911 30.3333 18.0392 30.5607 17.9332C30.788 17.8272 31.0342 17.7693 31.2842 17.763C31.5342 17.7568 31.7829 17.8023 32.0151 17.8968C32.2473 17.9913 32.4582 18.1328 32.6351 18.3128C32.8119 18.4927 32.951 18.7074 33.0438 18.9437C33.1367 19.18 33.1814 19.4331 33.1752 19.6875C33.1691 19.942 33.1122 20.1925 33.008 20.4239C32.9038 20.6553 32.7546 20.8627 32.5692 21.0336C32.0038 21.6207 30.3538 21.9378 28.9577 22.0552C29.0731 20.6344 29.3846 18.9551 29.9615 18.3797ZM23.4308 18.3797C23.7783 18.0312 24.2467 17.8358 24.7346 17.8358C25.2226 17.8358 25.6909 18.0312 26.0385 18.3797C26.6154 18.9551 26.9269 20.6344 27.0423 22.0552C25.6462 21.9378 23.9962 21.6207 23.4308 21.0336C23.0883 20.6799 22.8963 20.2032 22.8963 19.7067C22.8963 19.2101 23.0883 18.7335 23.4308 18.3797ZM38.1538 27.727H28.9231V36.1817C28.9231 36.4309 28.8258 36.6698 28.6527 36.846C28.4796 37.0222 28.2448 37.1212 28 37.1212C27.7552 37.1212 27.5204 37.0222 27.3473 36.846C27.1742 36.6698 27.0769 36.4309 27.0769 36.1817V27.727H17.8462V23.9693H27.0769V27.727H28.9231V23.9693H38.1538V27.727Z" fill="white"/>
</svg>
