<svg width="56" height="56" viewBox="0 0 56 56" fill="none" xmlns="http://www.w3.org/2000/svg">
<path d="M24.4272 2.12056C26.6297 0.813315 29.3703 0.813314 31.5728 2.12056L40.04 7.14611L48.6259 11.9661C50.8592 13.2199 52.2295 15.5934 52.1986 18.1544L52.08 28L52.1986 37.8456C52.2295 40.4066 50.8592 42.7801 48.6259 44.0338L40.04 48.8539L31.5728 53.8794C29.3703 55.1867 26.6297 55.1867 24.4272 53.8794L15.96 48.8539L7.37415 44.0339C5.14079 42.7801 3.77049 40.4066 3.80135 37.8456L3.92 28L3.80135 18.1544C3.77049 15.5934 5.14079 13.2199 7.37415 11.9662L15.96 7.14611L24.4272 2.12056Z" fill="#FF8FC1"/>
<path d="M25.4883 26.05H27.4096V39.7H29.3309" stroke="white" stroke-width="5" stroke-linecap="round" stroke-linejoin="round"/>
<path d="M26.9297 20.2C28.7866 20.2 30.2919 18.6722 30.2919 16.7875C30.2919 14.9028 28.7866 13.375 26.9297 13.375C25.0727 13.375 23.5674 14.9028 23.5674 16.7875C23.5674 18.6722 25.0727 20.2 26.9297 20.2Z" fill="white"/>
</svg>
