<svg width="56" height="56" viewBox="0 0 56 56" fill="none" xmlns="http://www.w3.org/2000/svg">
<path d="M24.4272 2.12056C26.6297 0.813315 29.3703 0.813314 31.5728 2.12056L40.04 7.14611L48.6259 11.9661C50.8592 13.2199 52.2295 15.5934 52.1986 18.1544L52.08 28L52.1986 37.8456C52.2295 40.4066 50.8592 42.7801 48.6259 44.0338L40.04 48.8539L31.5728 53.8794C29.3703 55.1867 26.6297 55.1867 24.4272 53.8794L15.96 48.8539L7.37415 44.0339C5.14079 42.7801 3.77049 40.4066 3.80135 37.8456L3.92 28L3.80135 18.1544C3.77049 15.5934 5.14079 13.2199 7.37415 11.9662L15.96 7.14611L24.4272 2.12056Z" fill="#FF8FC1"/>
<path d="M26.3889 16.5706C26.8397 16.2023 27.4104 16.0002 28 16.0002C28.5896 16.0002 29.1603 16.2023 29.6111 16.5706L37.1111 22.7048C37.6756 23.1647 38 23.8422 38 24.5574V35.1153C38 35.6152 37.7951 36.0947 37.4305 36.4482C37.0658 36.8017 36.5713 37.0002 36.0556 37.0002H32.7222C32.2065 37.0002 31.7119 36.8017 31.3473 36.4482C30.9826 36.0947 30.7778 35.6152 30.7778 35.1153V29.7297C30.7778 29.5155 30.69 29.31 30.5337 29.1585C30.3774 29.007 30.1655 28.9219 29.9444 28.9219H26.0556C25.8345 28.9219 25.6226 29.007 25.4663 29.1585C25.31 29.31 25.2222 29.5155 25.2222 29.7297V35.1153C25.2222 35.6152 25.0174 36.0947 24.6527 36.4482C24.2881 36.8017 23.7935 37.0002 23.2778 37.0002H19.9444C19.6891 37.0002 19.4362 36.9515 19.2003 36.8568C18.9644 36.762 18.7501 36.6232 18.5695 36.4482C18.389 36.2731 18.2457 36.0653 18.148 35.8366C18.0503 35.6079 18 35.3628 18 35.1153V24.5563C18 23.8422 18.3244 23.1647 18.8889 22.7037L26.3889 16.5706Z" fill="white"/>
</svg>
