<svg width="56" height="56" viewBox="0 0 56 56" fill="none" xmlns="http://www.w3.org/2000/svg">
<path d="M24.4272 2.12056C26.6297 0.813315 29.3703 0.813314 31.5728 2.12056L40.04 7.14611L48.6259 11.9661C50.8592 13.2199 52.2295 15.5934 52.1986 18.1544L52.08 28L52.1986 37.8456C52.2295 40.4066 50.8592 42.7801 48.6259 44.0338L40.04 48.8539L31.5728 53.8794C29.3703 55.1867 26.6297 55.1867 24.4272 53.8794L15.96 48.8539L7.37415 44.0339C5.14079 42.7801 3.77049 40.4066 3.80135 37.8456L3.92 28L3.80135 18.1544C3.77049 15.5934 5.14079 13.2199 7.37415 11.9662L15.96 7.14611L24.4272 2.12056Z" fill="white"/>
<g clip-path="url(#clip0_859_7562)">
<path d="M29.5286 19.3067C27.6522 18.9401 25.7109 19.1 23.9198 19.7689C23.8328 19.8034 23.7535 19.8546 23.6863 19.9197C23.6191 19.9848 23.5654 20.0625 23.5283 20.1483C23.4533 20.3217 23.4502 20.5177 23.5198 20.6934C23.5893 20.869 23.7258 21.0098 23.8991 21.0848C24.0725 21.1599 24.2686 21.1629 24.4442 21.0934C25.9864 20.5103 27.6593 20.3627 29.2798 20.6667C29.3747 20.6917 29.4739 20.6968 29.5709 20.6815C29.668 20.6663 29.7608 20.6312 29.8436 20.5783C29.9263 20.5254 29.9973 20.456 30.0519 20.3743C30.1065 20.2927 30.1436 20.2006 30.1608 20.1039C30.1781 20.0072 30.1751 19.908 30.1521 19.8125C30.1291 19.717 30.0865 19.6273 30.0271 19.549C29.9677 19.4708 29.8928 19.4057 29.807 19.3579C29.7212 19.3101 29.6264 19.2805 29.5286 19.2712V19.3067Z" fill="#FF8FC1"/>
<path d="M34.5605 26.0622C35.2281 26.0622 35.7693 25.5209 35.7693 24.8533C35.7693 24.1856 35.2281 23.6444 34.5605 23.6444C33.8928 23.6444 33.3516 24.1856 33.3516 24.8533C33.3516 25.5209 33.8928 26.0622 34.5605 26.0622Z" fill="#FF8FC1"/>
<g clip-path="url(#clip1_859_7562)">
<path d="M43.1114 28.1067C42.4486 27.8587 41.8435 27.4775 41.3336 26.9867C40.1684 25.6918 39.1846 24.2444 38.4092 22.6845L41.4225 17.9823C41.4951 17.8749 41.5404 17.7515 41.5547 17.6227C41.569 17.4939 41.5518 17.3636 41.5046 17.2429C41.4574 17.1222 41.3816 17.0148 41.2837 16.93C41.1857 16.8451 41.0687 16.7852 40.9425 16.7556C39.3926 16.5503 37.816 16.7715 36.3825 17.3956C35.3685 17.8402 34.4298 18.44 33.6003 19.1734C32.0092 18.3914 30.2952 17.8892 28.5336 17.689C22.4892 17.129 16.6847 21.0223 16.0359 26.4445L15.9114 26.3823C15.6003 26.245 15.3211 26.0445 15.0915 25.7935C14.862 25.5426 14.6871 25.2466 14.5781 24.9245C14.507 24.6976 14.4822 24.4588 14.5051 24.2221C14.528 23.9855 14.5982 23.7558 14.7114 23.5467C14.8115 23.3709 14.9555 23.2239 15.1292 23.1201C15.2372 23.0547 15.3312 22.9687 15.4059 22.867C15.4807 22.7653 15.5347 22.6498 15.5648 22.5273C15.5949 22.4047 15.6006 22.2774 15.5815 22.1526C15.5625 22.0278 15.519 21.908 15.4536 21.8001C15.3883 21.6921 15.3023 21.598 15.2006 21.5233C15.0988 21.4486 14.9834 21.3946 14.8608 21.3645C14.7383 21.3343 14.6109 21.3286 14.4862 21.3477C14.3614 21.3668 14.2416 21.4103 14.1336 21.4756C13.6796 21.7456 13.303 22.1284 13.0403 22.5867C12.8002 23.0224 12.6505 23.502 12.6001 23.9968C12.5497 24.4917 12.5996 24.9916 12.747 25.4667C12.9267 26.0431 13.2219 26.5768 13.6147 27.0352C14.0074 27.4937 14.4895 27.8674 15.0314 28.1334L15.9203 28.6134C16.0624 30.8753 16.6675 33.0838 17.6981 35.1023C18.4085 36.6258 19.3042 38.0558 20.3647 39.3601C20.4494 39.4672 20.5575 39.5534 20.6809 39.612C20.8042 39.6705 20.9393 39.6999 21.0759 39.6978H24.2847C24.3582 39.6887 24.4284 39.662 24.4895 39.62C24.5505 39.578 24.6005 39.522 24.6354 39.4567C24.6702 39.3913 24.6889 39.3186 24.6897 39.2445C24.6906 39.1705 24.6736 39.0973 24.6403 39.0312L24.4447 38.3378C24.3276 37.9939 24.2296 37.6438 24.1514 37.289C24.9603 37.4312 26.0003 37.5645 26.7025 37.6267C27.6256 37.6987 28.5528 37.6987 29.4759 37.6267C29.8225 38.249 30.1781 38.809 30.4981 39.2712C30.5737 39.3833 30.6756 39.4751 30.7949 39.5386C30.9142 39.6022 31.0473 39.6355 31.1825 39.6356H33.947C34.0374 39.6344 34.1264 39.612 34.2066 39.5702C34.2868 39.5284 34.3561 39.4683 34.4089 39.3948C34.4616 39.3212 34.4964 39.2364 34.5103 39.147C34.5243 39.0576 34.517 38.9662 34.4892 38.8801C34.2847 38.2223 34.0181 37.3245 33.8581 36.7734C35.0327 36.3995 36.1533 35.8736 37.1914 35.209C37.3336 35.1112 37.4759 34.9778 37.6181 34.8623C36.8744 34.635 36.1541 34.3373 35.467 33.9734C35.2996 33.8862 35.1737 33.736 35.117 33.556C35.0604 33.376 35.0775 33.1808 35.1647 33.0134C35.252 32.846 35.4021 32.7201 35.5822 32.6635C35.7622 32.6068 35.9574 32.6239 36.1247 32.7112C37.0146 33.1723 37.9668 33.5017 38.9514 33.689C39.7399 33.8046 40.538 33.8404 41.3336 33.7956C41.5102 33.7884 41.6806 33.7288 41.8231 33.6243C41.9656 33.5198 42.0737 33.3752 42.1336 33.209L43.6714 29.2623C43.7132 29.1498 43.7318 29.0301 43.7261 28.9102C43.7204 28.7904 43.6905 28.6729 43.6381 28.5649C43.5858 28.457 43.5122 28.3607 43.4216 28.282C43.3311 28.2032 43.2256 28.1436 43.1114 28.1067ZM24.2581 21.6356C24.1725 21.6662 24.0822 21.6812 23.9914 21.6801C23.8167 21.6773 23.6483 21.6141 23.515 21.5011C23.3816 21.3881 23.2916 21.2325 23.2601 21.0606C23.2287 20.8887 23.2578 20.7112 23.3425 20.5583C23.4272 20.4055 23.5623 20.2867 23.7247 20.2223C25.6244 19.5161 27.6819 19.347 29.6714 19.7334C29.7739 19.7453 29.8728 19.7781 29.9622 19.8297C30.0515 19.8813 30.1293 19.9507 30.1908 20.0335C30.2523 20.1163 30.2962 20.2109 30.3197 20.3113C30.3433 20.4117 30.3461 20.5159 30.3278 20.6175C30.3096 20.719 30.2707 20.8158 30.2137 20.9017C30.1566 20.9877 30.0826 21.061 29.9961 21.1173C29.9096 21.1735 29.8125 21.2115 29.7108 21.2288C29.6091 21.2461 29.505 21.2423 29.4047 21.2178C27.6834 20.8822 25.9028 21.0267 24.2581 21.6356ZM35.387 27.0756C35.1338 27.0756 34.8863 27.0005 34.6758 26.8599C34.4653 26.7193 34.3013 26.5193 34.2044 26.2855C34.1075 26.0516 34.0822 25.7942 34.1316 25.5459C34.181 25.2976 34.3029 25.0695 34.4819 24.8905C34.6609 24.7115 34.889 24.5896 35.1373 24.5402C35.3855 24.4908 35.6429 24.5162 35.8768 24.6131C36.1107 24.7099 36.3106 24.874 36.4512 25.0845C36.5919 25.295 36.667 25.5425 36.667 25.7956C36.6681 25.9637 36.6362 26.1304 36.5729 26.2861C36.5097 26.4419 36.4164 26.5836 36.2984 26.7033C36.1803 26.823 36.0399 26.9183 35.885 26.9837C35.7302 27.0491 35.5639 27.0833 35.3959 27.0845L35.387 27.0756Z" fill="#E00087"/>
</g>
</g>
<defs>
<clipPath id="clip0_859_7562">
<rect width="32" height="32" fill="white" transform="translate(12 10)"/>
</clipPath>
<clipPath id="clip1_859_7562">
<rect width="32" height="32" fill="white" transform="translate(12 11.3334)"/>
</clipPath>
</defs>
</svg>
