<svg width="56" height="56" viewBox="0 0 56 56" fill="none" xmlns="http://www.w3.org/2000/svg">
<path d="M24.4272 2.12056C26.6297 0.813315 29.3703 0.813314 31.5728 2.12056L40.04 7.14611L48.6259 11.9661C50.8592 13.2199 52.2295 15.5934 52.1986 18.1544L52.08 28L52.1986 37.8456C52.2295 40.4066 50.8592 42.7801 48.6259 44.0338L40.04 48.8539L31.5728 53.8794C29.3703 55.1867 26.6297 55.1867 24.4272 53.8794L15.96 48.8539L7.37415 44.0339C5.14079 42.7801 3.77049 40.4066 3.80135 37.8456L3.92 28L3.80135 18.1544C3.77049 15.5934 5.14079 13.2199 7.37415 11.9662L15.96 7.14611L24.4272 2.12056Z" fill="white"/>
<path d="M39 21H19C18.7348 21 18.4804 20.8946 18.2929 20.7071C18.1054 20.5196 18 20.2652 18 20C18 19.7348 18.1054 19.4804 18.2929 19.2929C18.4804 19.1054 18.7348 19 19 19H36C36.2652 19 36.5196 18.8946 36.7071 18.7071C36.8946 18.5196 37 18.2652 37 18C37 17.7348 36.8946 17.4804 36.7071 17.2929C36.5196 17.1054 36.2652 17 36 17H19C18.2054 17.0033 17.4442 17.3204 16.8823 17.8823C16.3204 18.4442 16.0033 19.2054 16 20V36C16.0033 36.7946 16.3204 37.5558 16.8823 38.1177C17.4442 38.6796 18.2054 38.9967 19 39H39C39.5304 39 40.0391 38.7893 40.4142 38.4142C40.7893 38.0391 41 37.5304 41 37V23C41 22.4696 40.7893 21.9609 40.4142 21.5858C40.0391 21.2107 39.5304 21 39 21ZM34.5 31.5C34.2033 31.5 33.9133 31.412 33.6666 31.2472C33.42 31.0824 33.2277 30.8481 33.1142 30.574C33.0007 30.2999 32.9709 29.9983 33.0288 29.7074C33.0867 29.4164 33.2296 29.1491 33.4393 28.9393C33.6491 28.7296 33.9164 28.5867 34.2074 28.5288C34.4983 28.4709 34.7999 28.5007 35.074 28.6142C35.3481 28.7277 35.5824 28.92 35.7472 29.1666C35.912 29.4133 36 29.7033 36 30C36 30.3978 35.842 30.7794 35.5607 31.0607C35.2794 31.342 34.8978 31.5 34.5 31.5Z" fill="#E00087"/>
</svg>
