<svg width="56" height="56" viewBox="0 0 56 56" fill="none" xmlns="http://www.w3.org/2000/svg">
<path d="M24.4272 2.12056C26.6297 0.813315 29.3703 0.813314 31.5728 2.12056L40.04 7.14611L48.6259 11.9661C50.8592 13.2199 52.2295 15.5934 52.1986 18.1544L52.08 28L52.1986 37.8456C52.2295 40.4066 50.8592 42.7801 48.6259 44.0338L40.04 48.8539L31.5728 53.8794C29.3703 55.1867 26.6297 55.1867 24.4272 53.8794L15.96 48.8539L7.37415 44.0339C5.14079 42.7801 3.77049 40.4066 3.80135 37.8456L3.92 28L3.80135 18.1544C3.77049 15.5934 5.14079 13.2199 7.37415 11.9662L15.96 7.14611L24.4272 2.12056Z" fill="#FF8FC1"/>
<path d="M28 28C28.6875 28 29.2762 27.7648 29.7663 27.2944C30.2554 26.8248 30.5 26.26 30.5 25.6C30.5 24.94 30.2554 24.3748 29.7663 23.9044C29.2762 23.4348 28.6875 23.2 28 23.2C27.3125 23.2 26.7242 23.4348 26.235 23.9044C25.745 24.3748 25.5 24.94 25.5 25.6C25.5 26.26 25.745 26.8248 26.235 27.2944C26.7242 27.7648 27.3125 28 28 28ZM28 40C24.6458 37.26 22.1408 34.7148 20.485 32.3644C18.8283 30.0148 18 27.84 18 25.84C18 22.84 19.0054 20.45 21.0163 18.67C23.0263 16.89 25.3542 16 28 16C30.6458 16 32.9738 16.89 34.9838 18.67C36.9946 20.45 38 22.84 38 25.84C38 27.84 37.1721 30.0148 35.5163 32.3644C33.8596 34.7148 31.3542 37.26 28 40Z" fill="white"/>
</svg>
