<svg width="56" height="56" viewBox="0 0 56 56" fill="none" xmlns="http://www.w3.org/2000/svg">
<path d="M24.4272 2.12056C26.6297 0.813315 29.3703 0.813314 31.5728 2.12056L40.04 7.14611L48.6259 11.9661C50.8592 13.2199 52.2295 15.5934 52.1986 18.1544L52.08 28L52.1986 37.8456C52.2295 40.4066 50.8592 42.7801 48.6259 44.0338L40.04 48.8539L31.5728 53.8794C29.3703 55.1867 26.6297 55.1867 24.4272 53.8794L15.96 48.8539L7.37415 44.0339C5.14079 42.7801 3.77049 40.4066 3.80135 37.8456L3.92 28L3.80135 18.1544C3.77049 15.5934 5.14079 13.2199 7.37415 11.9662L15.96 7.14611L24.4272 2.12056Z" fill="white"/>
<path d="M41.3337 24.6133C41.3337 26.5067 40.6003 28.28 39.267 29.6133L28.8003 40.08C28.747 40.1333 28.6003 40.2533 28.5337 40.2933C28.3737 40.4 28.187 40.4533 28.0003 40.4533C27.8137 40.4533 27.6137 40.4 27.4537 40.2933C27.3737 40.24 27.307 40.1867 27.227 40.1067L16.747 29.6133C15.4003 28.28 14.667 26.5067 14.667 24.6133C14.667 22.72 15.4003 20.9467 16.747 19.6133C19.507 16.8667 23.987 16.8667 26.747 19.6133L28.0003 20.88L29.267 19.6133C32.027 16.8667 36.507 16.8667 39.2537 19.6133C40.6003 20.9467 41.3337 22.72 41.3337 24.6133Z" fill="#E00087"/>
</svg>
