<svg width="24" height="24" viewBox="0 0 24 24" fill="none" xmlns="http://www.w3.org/2000/svg">
<g clip-path="url(#clip0_980_858)">
<rect y="2" width="26" height="22" fill="white"/>
<path d="M12 -8C8.04438 -8 4.17759 -6.82702 0.888603 -4.62939C-2.40038 -2.43176 -4.96383 0.691808 -6.47758 4.34633C-7.99133 8.00085 -8.3874 12.0222 -7.6157 15.9018C-6.84399 19.7814 -4.93918 23.3451 -2.14213 26.1421C0.654922 28.9392 4.21858 30.844 8.0982 31.6157C11.9778 32.3874 15.9992 31.9913 19.6537 30.4776C23.3082 28.9638 26.4318 26.4004 28.6294 23.1114C30.827 19.8224 32 15.9556 32 12C32 9.37356 31.4827 6.77284 30.4776 4.34633C29.4725 1.91982 27.9993 -0.284965 26.1421 -2.14214C24.285 -3.99931 22.0802 -5.4725 19.6537 -6.47759C17.2272 -7.48268 14.6264 -8 12 -8ZM20.6 7.22L11.46 19.22C11.2737 19.462 11.0344 19.6582 10.7605 19.7934C10.4867 19.9286 10.1854 19.9993 9.88001 20C9.57622 20.0016 9.27605 19.934 9.00229 19.8024C8.72852 19.6707 8.48835 19.4784 8.30001 19.24L3.42001 13.02C3.09379 12.601 2.9474 12.0695 3.01304 11.5425C3.07867 11.0155 3.35097 10.5362 3.77001 10.21C4.18905 9.88378 4.72052 9.73739 5.2475 9.80303C5.77447 9.86867 6.25379 10.141 6.58001 10.56L9.84001 14.72L17.4 4.72C17.5602 4.50988 17.7602 4.33338 17.9887 4.20057C18.2171 4.06776 18.4694 3.98124 18.7313 3.94596C18.9932 3.91067 19.2594 3.92731 19.5148 3.99492C19.7703 4.06253 20.0099 4.17979 20.22 4.34C20.4301 4.50021 20.6066 4.70024 20.7394 4.92867C20.8722 5.15709 20.9588 5.40944 20.994 5.6713C21.0293 5.93316 21.0127 6.19941 20.9451 6.45484C20.8775 6.71027 20.7602 6.94988 20.6 7.16V7.22Z" fill="#5CB731"/>
</g>
<defs>
<clipPath id="clip0_980_858">
<rect width="24" height="24" fill="white"/>
</clipPath>
</defs>
</svg>
