<svg width="84" height="92" viewBox="0 0 84 92" fill="none" xmlns="http://www.w3.org/2000/svg">
<path d="M33.8336 2.847C38.8679 -0.141003 45.1321 -0.140998 50.1664 2.847L62.64 10.2505L75.2884 17.3512C80.3932 20.217 83.5253 25.642 83.4548 31.4958L83.28 46L83.4548 60.5042C83.5253 66.358 80.3932 71.783 75.2884 74.6488L62.64 81.7495L50.1664 89.153C45.1321 92.141 38.8679 92.141 33.8336 89.153L21.36 81.7495L8.71159 74.6488C3.60677 71.783 0.474668 66.358 0.545211 60.5042L0.719998 46L0.545211 31.4958C0.474668 25.642 3.60678 20.217 8.7116 17.3512L21.36 10.2505L33.8336 2.847Z" fill="white"/>
</svg>
