<svg width="432" height="210" viewBox="0 0 432 210" fill="none" xmlns="http://www.w3.org/2000/svg">
<g clip-path="url(#clip0_844_3995)">
<g opacity="0.04">
<path d="M-21.2544 445L-41.3949 424.422V371.005L61.9347 265.924L61.9347 225.643L100.027 186.238V177.369M67.1445 195.039L46.6104 215.573L46.6104 260.67L-60.6598 367.503V421.357L-38.3301 445M-51.903 445L-76.8598 420.043V400.778M-76.8598 379.324V360.06L33.9131 248.849V193.243L104.843 121M78.1347 108.303V129.319L21.2158 186.238V242.719L-114.514 378.449L-113.638 409.973L-78.6111 445M-98.3138 445L-133.341 409.973V371.005L6.32933 231.335V180.984L52.6097 134.704M76.8212 61.4543V71.5246L-8.1193 156.465V218.2L-160.925 371.005V412.6L-128.525 445M-156.108 445L-178 423.108V360.06L-33.5139 215.573V152.962M3.25799 340.49C25.4035 318.437 55.3124 288.652 78.1347 265.924L-25.5248 369.584V421.357L-1.88157 445" stroke="#232323" stroke-width="2"/>
<circle cx="112.853" cy="112.681" r="11.3838" transform="rotate(-180 112.853 112.681)" fill="#232323"/>
<circle cx="78.7012" cy="96.919" r="10.3838" transform="rotate(-180 78.7012 96.919)" stroke="#232323" stroke-width="2"/>
<circle cx="59.4365" cy="125.817" r="10.3838" transform="rotate(-180 59.4365 125.817)" stroke="#232323" stroke-width="2"/>
<circle cx="76.0742" cy="51.3838" r="11.3838" transform="rotate(-180 76.0742 51.3838)" fill="#232323"/>
<circle cx="74.3223" cy="186.238" r="11.3838" transform="rotate(-180 74.3223 186.238)" fill="#232323"/>
<circle cx="99.9238" cy="165.985" r="11.3838" transform="rotate(-180 99.9238 165.985)" fill="#232323"/>
</g>
<g opacity="0.04">
<path d="M411.491 -209L431.631 -188.422V-135.005L328.302 -29.9245V10.3566L290.21 49.762V58.6306M323.092 40.961L343.626 20.4269V-24.6704L450.896 -131.503V-185.357L428.566 -209M442.139 -209L467.096 -184.043V-164.778M467.096 -143.324V-124.06L356.323 -12.8488V42.7566L285.394 115M312.102 127.697V106.681L369.021 49.762V-6.71907L504.75 -142.449L503.874 -173.973L468.847 -209M488.55 -209L523.577 -173.973V-135.005L383.907 4.66471V55.016L337.627 101.296M313.415 174.546V164.475L398.356 79.5349V17.7998L551.161 -135.005V-176.6L518.761 -209M546.345 -209L568.237 -187.108V-124.06L423.75 20.4269V83.0376M386.978 -104.49C364.833 -82.4368 334.924 -52.652 312.102 -29.9245L415.761 -133.584V-185.357L392.118 -209" stroke="#232323" stroke-width="2"/>
<circle cx="277.384" cy="123.319" r="11.3838" fill="#232323"/>
<circle cx="311.535" cy="139.081" r="10.3838" stroke="#232323" stroke-width="2"/>
<circle cx="330.8" cy="110.183" r="10.3838" stroke="#232323" stroke-width="2"/>
<circle cx="314.162" cy="184.616" r="11.3838" fill="#232323"/>
<circle cx="423.621" cy="94.3945" r="11.3838" fill="#232323"/>
<circle cx="315.914" cy="49.7622" r="11.3838" fill="#232323"/>
<circle cx="290.312" cy="70.0146" r="11.3838" fill="#232323"/>
</g>
</g>
<defs>
<clipPath id="clip0_844_3995">
<rect width="432" height="210" fill="white"/>
</clipPath>
</defs>
</svg>
