<svg width="24" height="24" viewBox="0 0 24 24" fill="none" xmlns="http://www.w3.org/2000/svg">
<path d="M8.25 11.375V12.625C8.25 12.9705 7.97047 13.25 7.625 13.25H6.375C6.02953 13.25 5.75 12.9705 5.75 12.625V11.375C5.75 11.0295 6.02953 10.75 6.375 10.75H7.625C7.97047 10.75 8.25 11.0295 8.25 11.375ZM7.625 15.75H6.375C6.02953 15.75 5.75 16.0295 5.75 16.375V17.625C5.75 17.9705 6.02953 18.25 6.375 18.25H7.625C7.97047 18.25 8.25 17.9705 8.25 17.625V16.375C8.25 16.0295 7.97047 15.75 7.625 15.75ZM12.625 10.75H11.375C11.0295 10.75 10.75 11.0295 10.75 11.375V12.625C10.75 12.9705 11.0295 13.25 11.375 13.25H12.625C12.9705 13.25 13.25 12.9705 13.25 12.625V11.375C13.25 11.0295 12.9705 10.75 12.625 10.75ZM12.625 15.75H11.375C11.0295 15.75 10.75 16.0295 10.75 16.375V17.625C10.75 17.9705 11.0295 18.25 11.375 18.25H12.625C12.9705 18.25 13.25 17.9705 13.25 17.625V16.375C13.25 16.0295 12.9705 15.75 12.625 15.75ZM17.625 10.75H16.375C16.0295 10.75 15.75 11.0295 15.75 11.375V12.625C15.75 12.9705 16.0295 13.25 16.375 13.25H17.625C17.9705 13.25 18.25 12.9705 18.25 12.625V11.375C18.25 11.0295 17.9705 10.75 17.625 10.75ZM17.625 15.75H16.375C16.0295 15.75 15.75 16.0295 15.75 16.375V17.625C15.75 17.9705 16.0295 18.25 16.375 18.25H17.625C17.9705 18.25 18.25 17.9705 18.25 17.625V16.375C18.25 16.0295 17.9705 15.75 17.625 15.75ZM6.375 5.75H7.625C7.97047 5.75 8.25 5.47047 8.25 5.125V2.625C8.25 2.27953 7.97047 2 7.625 2H6.375C6.02953 2 5.75 2.27953 5.75 2.625V5.125C5.75 5.47047 6.02953 5.75 6.375 5.75ZM22 7V19.5C22 20.8806 20.8806 22 19.5 22H4.5C3.11937 22 2 20.8806 2 19.5V7C2 5.61937 3.11937 4.5 4.5 4.5H5.125V5.125C5.125 5.81348 5.6859 6.375 6.375 6.375H7.625C8.3141 6.375 8.875 5.81348 8.875 5.125V4.5H15.125V5.125C15.125 5.81348 15.6865 6.375 16.375 6.375H17.625C18.3135 6.375 18.875 5.81348 18.875 5.125V4.5H19.5C20.8806 4.5 22 5.61937 22 7ZM20.75 9.5C20.75 8.81152 20.1897 8.25 19.5 8.25H4.5C3.8109 8.25 3.25 8.81152 3.25 9.5V19.5C3.25 20.1897 3.8109 20.75 4.5 20.75H19.5C20.1897 20.75 20.75 20.1897 20.75 19.5V9.5ZM16.375 5.75H17.625C17.9705 5.75 18.25 5.47047 18.25 5.125V2.625C18.25 2.27953 17.9705 2 17.625 2H16.375C16.0295 2 15.75 2.27953 15.75 2.625V5.125C15.75 5.47047 16.0295 5.75 16.375 5.75Z" fill="#A8A8A8" fill-opacity="0.5"/>
</svg>
