<svg width="1920" height="2240" viewBox="0 0 1920 2240" fill="none" xmlns="http://www.w3.org/2000/svg">
<g clip-path="url(#clip0_1059_1648)">
<path opacity="0.04" d="M1343.23 699.951C1353.26 714.363 1354.63 733.107 1346.78 748.82L1291.01 860.535L1237.94 973.561C1230.48 989.459 1214.93 1000.01 1197.39 1001.07L1072.76 1008.63L948.342 1019.18C930.842 1020.67 913.929 1012.48 904.243 997.827L835.383 893.667L764.033 791.197C753.997 776.784 752.634 758.04 760.479 742.327L816.254 630.613L869.321 517.586C876.785 501.688 892.335 491.136 909.866 490.074L1034.5 482.519L1158.92 471.963C1176.42 470.478 1193.33 478.669 1203.02 493.32L1271.88 597.48L1343.23 699.951Z" fill="url(#paint0_linear_1059_1648)"/>
<path opacity="0.04" d="M303.975 1729.92C293.924 1744.32 276.809 1752.08 259.353 1750.16L135.24 1736.47L10.8346 1725.78C-6.66365 1724.28 -21.9438 1713.34 -29.0054 1697.26L-79.2113 1582.93L-132.157 1469.85C-139.605 1453.95 -137.77 1435.24 -127.375 1421.09L-53.4688 1320.44L17.9907 1218.05C28.0419 1203.65 45.1562 1195.89 62.6131 1197.81L186.725 1211.49L311.131 1222.18C328.629 1223.69 343.909 1234.63 350.971 1250.71L401.177 1365.03L454.123 1478.11C461.57 1494.02 459.736 1512.72 449.341 1526.88L375.434 1627.52L303.975 1729.92Z" fill="url(#paint1_linear_1059_1648)"/>
<path opacity="0.02" d="M1302.11 374.981C1304.99 389.33 1299.81 404.107 1288.59 413.509L1228.89 463.555L1170.41 515.024C1159.43 524.694 1144.04 527.591 1130.29 522.579L1057.09 495.899L983.281 470.991C969.414 466.311 959.21 454.432 956.675 440.017L943.185 363.292L927.85 286.914C924.969 272.565 930.155 257.788 941.371 248.386L1001.07 198.34L1059.55 146.871C1070.54 137.201 1085.93 134.304 1099.68 139.316L1172.87 165.996L1246.68 190.904C1260.55 195.584 1270.75 207.463 1273.29 221.878L1286.78 298.603L1302.11 374.981Z" fill="url(#paint2_linear_1059_1648)"/>
<path opacity="0.02" d="M668.326 809.064C677.802 812.959 684.395 821.717 685.515 831.901L693.76 906.842L703.808 981.562C705.174 991.716 700.885 1001.8 692.626 1007.87L631.847 1052.48L572.161 1098.54C564.051 1104.8 553.17 1106.13 543.79 1102.01L474.767 1071.68L405.033 1043.02C395.557 1039.13 388.964 1030.37 387.844 1020.18L379.599 945.242L369.551 870.521C368.185 860.368 372.474 850.279 380.733 844.217L441.511 799.606L501.197 753.544C509.308 747.284 520.189 745.954 529.568 750.076L598.592 780.406L668.326 809.064Z" fill="url(#paint3_linear_1059_1648)"/>
<path opacity="0.04" d="M884.79 6.70105C894.266 10.5953 900.858 19.3538 901.979 29.5373L910.224 104.478L920.272 179.199C921.638 189.353 917.349 199.441 909.09 205.503L848.311 250.114L788.625 296.177C780.515 302.436 769.633 303.766 760.254 299.644L691.231 269.314L621.497 240.656C612.021 236.762 605.428 228.003 604.308 217.82L596.063 142.879L586.014 68.1579C584.649 58.0044 588.938 47.9158 597.197 41.8538L657.975 -2.75707L717.661 -48.8196C725.772 -55.0789 736.653 -56.4089 746.032 -52.2874L815.056 -21.9571L884.79 6.70105Z" fill="url(#paint4_linear_1059_1648)"/>
<path opacity="0.04" d="M202.359 446.612C192.696 450.017 181.945 447.872 174.328 441.021L118.274 390.602L61.0218 341.548C53.2419 334.882 49.7237 324.5 51.8486 314.477L67.486 240.724L81.3416 166.614C83.2244 156.544 90.4568 148.306 100.199 145.135L171.89 121.801L242.998 96.7452C252.661 93.3405 263.412 95.4848 271.029 102.336L327.082 152.755L384.335 201.809C392.115 208.475 395.633 218.858 393.508 228.88L377.871 302.633L364.015 376.743C362.133 386.813 354.9 395.051 345.158 398.222L273.467 421.557L202.359 446.612Z" fill="url(#paint5_linear_1059_1648)"/>
<path opacity="0.04" d="M1219.2 2364.23C1208.89 2374.62 1193.73 2378.55 1179.67 2374.48L1055.18 2338.43L929.846 2305.38C915.694 2301.65 904.709 2290.49 901.206 2276.28L870.179 2150.44L836.129 2025.38C832.284 2011.26 836.458 1996.16 847.013 1986.02L940.484 1896.23L1031.76 1804.21C1042.07 1793.82 1057.23 1789.89 1071.29 1793.96L1195.78 1830.01L1321.12 1863.05C1335.27 1866.78 1346.25 1877.95 1349.76 1892.16L1380.78 2018L1414.83 2143.06C1418.68 2157.18 1414.5 2172.28 1403.95 2182.42L1310.48 2272.21L1219.2 2364.23Z" fill="url(#paint6_linear_1059_1648)"/>
<path opacity="0.02" d="M1373.96 1619.35C1376.84 1633.7 1371.66 1648.48 1360.44 1657.88L1300.74 1707.92L1242.26 1759.39C1231.28 1769.06 1215.89 1771.96 1202.14 1766.95L1128.95 1740.27L1055.13 1715.36C1041.27 1710.68 1031.06 1698.8 1028.53 1684.39L1015.04 1607.66L999.701 1531.28C996.82 1516.93 1002.01 1502.16 1013.22 1492.75L1072.92 1442.71L1131.4 1391.24C1142.39 1381.57 1157.78 1378.67 1171.53 1383.69L1244.72 1410.36L1318.53 1435.27C1332.4 1439.95 1342.6 1451.83 1345.14 1466.25L1358.63 1542.97L1373.96 1619.35Z" fill="url(#paint7_linear_1059_1648)"/>
<path opacity="0.02" d="M886.684 1251.6C895.483 1255.22 901.605 1263.35 902.645 1272.8L911.02 1348.93L921.226 1424.82C922.494 1434.25 918.512 1443.62 910.843 1449.25L849.107 1494.56L788.481 1541.35C780.95 1547.16 770.846 1548.4 762.137 1544.57L692.027 1513.76L621.194 1484.65C612.395 1481.04 606.274 1472.9 605.233 1463.45L596.859 1387.33L586.652 1311.43C585.384 1302 589.367 1292.63 597.036 1287L658.771 1241.69L719.397 1194.9C726.928 1189.09 737.032 1187.85 745.741 1191.68L815.852 1222.49L886.684 1251.6Z" fill="url(#paint8_linear_1059_1648)"/>
<path opacity="0.02" d="M1807.79 616.492C1803.75 626.7 1794.46 633.889 1783.57 635.237L1726.8 642.256L1670.22 650.642C1659.36 652.251 1648.49 647.802 1641.88 639.041L1607.42 593.389L1571.87 548.581C1565.04 539.982 1563.46 528.344 1567.74 518.236L1590.05 465.564L1611.07 412.37C1615.11 402.162 1624.4 394.973 1635.29 393.626L1692.06 386.607L1748.64 378.221C1759.5 376.612 1770.37 381.061 1776.98 389.822L1811.44 435.474L1847 480.282C1853.82 488.881 1855.4 500.519 1851.12 510.627L1828.82 563.299L1807.79 616.492Z" fill="url(#paint9_linear_1059_1648)"/>
<path opacity="0.04" d="M1478.18 1075.93C1466.97 1057.05 1466.97 1033.56 1478.18 1014.68L1508.31 963.903L1537.22 912.415C1547.97 893.272 1568.31 881.526 1590.26 881.791L1649.3 882.502L1708.35 881.791C1730.3 881.526 1750.64 893.272 1761.39 912.415L1790.29 963.903L1820.43 1014.68C1831.64 1033.56 1831.64 1057.05 1820.43 1075.93L1790.29 1126.7L1761.39 1178.19C1750.64 1197.33 1730.3 1209.08 1708.35 1208.82L1649.3 1208.1L1590.26 1208.82C1568.31 1209.08 1547.97 1197.33 1537.22 1178.19L1508.31 1126.7L1478.18 1075.93Z" fill="url(#paint10_linear_1059_1648)"/>
<path opacity="0.02" d="M1299.43 1077.08C1309.58 1081.25 1316.64 1090.63 1317.84 1101.54L1324.1 1158.4L1331.72 1215.09C1333.19 1225.97 1328.59 1236.78 1319.74 1243.27L1273.63 1277.12L1228.35 1312.06C1219.66 1318.77 1208 1320.2 1197.95 1315.78L1145.58 1292.77L1092.68 1271.03C1082.52 1266.85 1075.46 1257.47 1074.26 1246.56L1068 1189.7L1060.38 1133.01C1058.92 1122.13 1063.51 1111.33 1072.36 1104.83L1118.47 1070.99L1163.76 1036.04C1172.45 1029.33 1184.1 1027.91 1194.15 1032.32L1246.52 1055.33L1299.43 1077.08Z" fill="url(#paint11_linear_1059_1648)"/>
<path opacity="0.02" d="M1832.79 1498.49C1828.75 1508.7 1819.46 1515.89 1808.57 1517.24L1751.8 1524.26L1695.22 1532.64C1684.36 1534.25 1673.49 1529.8 1666.88 1521.04L1632.42 1475.39L1596.86 1430.58C1590.04 1421.98 1588.46 1410.34 1592.74 1400.24L1615.04 1347.56L1636.07 1294.37C1640.11 1284.16 1649.4 1276.97 1660.29 1275.63L1717.06 1268.61L1773.64 1260.22C1784.5 1258.61 1795.37 1263.06 1801.98 1271.82L1836.44 1317.47L1872 1362.28C1878.82 1370.88 1880.4 1382.52 1876.12 1392.63L1853.82 1445.3L1832.79 1498.49Z" fill="url(#paint12_linear_1059_1648)"/>
<path opacity="0.04" d="M1921.99 1954.58C1934.53 1972.6 1936.24 1996.02 1926.43 2015.67L1900.06 2068.49L1874.96 2121.94C1865.63 2141.82 1846.19 2155.01 1824.28 2156.33L1765.34 2159.91L1706.51 2164.9C1684.63 2166.75 1663.49 2156.52 1651.38 2138.2L1618.82 2088.95L1585.08 2040.49C1572.53 2022.47 1570.83 1999.04 1580.64 1979.4L1607.01 1926.57L1632.11 1873.13C1641.44 1853.25 1660.88 1840.06 1682.79 1838.73L1741.73 1835.16L1800.56 1830.17C1822.44 1828.31 1843.58 1838.55 1855.69 1856.87L1888.25 1906.12L1921.99 1954.58Z" fill="url(#paint13_linear_1059_1648)"/>
<path opacity="0.02" d="M294.426 619.076C304.579 623.249 311.643 632.633 312.843 643.544L319.098 700.4L326.722 757.089C328.185 767.968 323.59 778.777 314.741 785.272L268.629 819.118L223.347 854.065C214.657 860.771 202.998 862.196 192.949 857.78L140.582 834.769L87.6761 813.027C77.5233 808.854 70.4599 799.47 69.2595 788.559L63.0043 731.703L55.3807 675.014C53.9177 664.135 58.5129 653.326 67.3618 646.831L113.473 612.985L158.756 578.038C167.446 571.332 179.104 569.907 189.154 574.323L241.52 597.334L294.426 619.076Z" fill="url(#paint14_linear_1059_1648)"/>
<path opacity="0.02" d="M112.988 1019.6C119.756 1022.38 124.465 1028.64 125.265 1035.91L128.342 1063.88L132.091 1091.76C133.067 1099.01 130.003 1106.22 124.104 1110.55L101.425 1127.19L79.1539 1144.38C73.3607 1148.85 65.5882 1149.8 58.8887 1146.86L33.1333 1135.54L7.11265 1124.85C0.344132 1122.07 -4.36483 1115.81 -5.16509 1108.54L-8.24158 1080.57L-11.991 1052.69C-12.9664 1045.44 -9.9029 1038.23 -4.00364 1033.9L18.6753 1017.26L40.9465 1000.07C46.7397 995.597 54.5121 994.647 61.2116 997.591L86.967 1008.91L112.988 1019.6Z" fill="url(#paint15_linear_1059_1648)"/>
<path opacity="0.02" d="M1822.96 1676.4C1829.73 1679.19 1834.44 1685.44 1835.24 1692.72L1838.32 1720.68L1842.07 1748.56C1843.04 1755.81 1839.98 1763.02 1834.08 1767.35L1811.4 1784L1789.13 1801.18C1783.34 1805.65 1775.57 1806.6 1768.87 1803.66L1743.11 1792.34L1717.09 1781.65C1710.32 1778.87 1705.61 1772.61 1704.81 1765.34L1701.74 1737.37L1697.99 1709.49C1697.01 1702.24 1700.07 1695.03 1705.97 1690.7L1728.65 1674.06L1750.92 1656.87C1756.72 1652.4 1764.49 1651.45 1771.19 1654.39L1796.94 1665.71L1822.96 1676.4Z" fill="url(#paint16_linear_1059_1648)"/>
<path opacity="0.02" d="M-26.524 2083.9C-22.9137 2077.53 -16.1153 2073.64 -8.79852 2073.77L19.33 2074.23L47.4614 2074.01C54.779 2073.96 61.543 2077.9 65.0971 2084.3L78.7605 2108.89L93.0126 2133.15C96.7198 2139.45 96.6853 2147.28 92.9227 2153.56L78.4576 2177.69L64.5781 2202.16C60.9678 2208.52 54.1694 2212.41 46.8526 2212.29L18.7241 2211.83L-9.40734 2212.04C-16.7249 2212.1 -23.4888 2208.15 -27.043 2201.76L-40.7064 2177.16L-54.9584 2152.91C-58.6657 2146.6 -58.6312 2138.77 -54.8685 2132.49L-40.4035 2108.37L-26.524 2083.9Z" fill="url(#paint17_linear_1059_1648)"/>
<path opacity="0.02" d="M221.601 1980.02C225.211 1973.65 232.01 1969.77 239.326 1969.89L267.455 1970.35L295.586 1970.14C302.904 1970.08 309.668 1974.03 313.222 1980.42L326.885 2005.01L341.138 2029.27C344.845 2035.58 344.81 2043.41 341.048 2049.69L326.583 2073.81L312.703 2098.28C309.093 2104.65 302.294 2108.53 294.978 2108.41L266.849 2107.95L238.718 2108.17C231.4 2108.22 224.636 2104.28 221.082 2097.88L207.419 2073.29L193.167 2049.03C189.459 2042.72 189.494 2034.89 193.256 2028.62L207.722 2004.49L221.601 1980.02Z" fill="url(#paint18_linear_1059_1648)"/>
<path opacity="0.02" d="M147.601 2148.02C151.211 2141.65 158.01 2137.77 165.326 2137.89L193.455 2138.35L221.586 2138.14C228.904 2138.08 235.668 2142.03 239.222 2148.42L252.885 2173.01L267.138 2197.27C270.845 2203.58 270.81 2211.41 267.048 2217.69L252.583 2241.81L238.703 2266.28C235.093 2272.65 228.294 2276.53 220.978 2276.41L192.849 2275.95L164.718 2276.17C157.4 2276.22 150.636 2272.28 147.082 2265.88L133.419 2241.29L119.167 2217.03C115.459 2210.72 115.494 2202.89 119.256 2196.62L133.722 2172.49L147.601 2148.02Z" fill="url(#paint19_linear_1059_1648)"/>
<path opacity="0.02" d="M1418.11 398.778C1412.33 394.294 1409.46 387.01 1410.62 379.786L1415.1 352.013L1418.91 324.14C1419.9 316.889 1424.78 310.759 1431.62 308.156L1457.91 298.15L1483.95 287.513C1490.73 284.746 1498.47 285.9 1504.15 290.522L1525.96 308.289L1548.19 325.525C1553.97 330.009 1556.85 337.293 1555.68 344.517L1551.2 372.29L1547.39 400.164C1546.4 407.414 1541.53 413.544 1534.69 416.147L1508.4 426.153L1482.35 436.79C1475.58 439.557 1467.83 438.403 1462.16 433.781L1440.35 416.014L1418.11 398.778Z" fill="url(#paint20_linear_1059_1648)"/>
<path opacity="0.02" d="M1647.43 -71.9237C1657.58 -67.7513 1664.64 -58.3672 1665.84 -47.4563L1672.1 9.40017L1679.72 66.0894C1681.19 76.9682 1676.59 87.7773 1667.74 94.2723L1621.63 128.118L1576.35 163.065C1567.66 169.771 1556 171.196 1545.95 166.78L1493.58 143.769L1440.68 122.027C1430.52 117.854 1423.46 108.47 1422.26 97.5592L1416 40.7027L1408.38 -15.9865C1406.92 -26.8653 1411.51 -37.6745 1420.36 -44.1695L1466.47 -78.0149L1511.76 -112.962C1520.45 -119.668 1532.1 -121.093 1542.15 -116.677L1594.52 -93.6662L1647.43 -71.9237Z" fill="url(#paint21_linear_1059_1648)"/>
<path opacity="0.04" d="M593.788 2064.49C589.753 2074.7 580.465 2081.89 569.571 2083.24L512.804 2090.26L456.222 2098.64C445.364 2100.25 434.494 2095.8 427.881 2087.04L393.418 2041.39L357.865 1996.58C351.042 1987.98 349.461 1976.34 353.741 1966.24L376.045 1913.56L397.074 1860.37C401.109 1850.16 410.398 1842.97 421.291 1841.63L478.058 1834.61L534.64 1826.22C545.498 1824.61 556.368 1829.06 562.982 1837.82L597.444 1883.47L632.997 1928.28C639.82 1936.88 641.402 1948.52 637.121 1958.63L614.817 2011.3L593.788 2064.49Z" fill="url(#paint22_linear_1059_1648)"/>
</g>
<defs>
<linearGradient id="paint0_linear_1059_1648" x1="823.656" y1="585.327" x2="1149.62" y2="918.216" gradientUnits="userSpaceOnUse">
<stop stop-color="white"/>
<stop offset="1" stop-color="white" stop-opacity="0"/>
</linearGradient>
<linearGradient id="paint1_linear_1059_1648" x1="231.775" y1="1202.77" x2="32.2087" y2="1623.77" gradientUnits="userSpaceOnUse">
<stop stop-color="white"/>
<stop offset="1" stop-color="white" stop-opacity="0"/>
</linearGradient>
<linearGradient id="paint2_linear_1059_1648" x1="1017.54" y1="172.77" x2="1127.71" y2="461.253" gradientUnits="userSpaceOnUse">
<stop stop-color="white"/>
<stop offset="1" stop-color="white" stop-opacity="0"/>
</linearGradient>
<linearGradient id="paint3_linear_1059_1648" x1="368.609" y1="919.999" x2="641.213" y2="981.895" gradientUnits="userSpaceOnUse">
<stop stop-color="#FFCFE5" stop-opacity="0.29"/>
<stop offset="1" stop-color="white"/>
</linearGradient>
<linearGradient id="paint4_linear_1059_1648" x1="585.073" y1="117.635" x2="857.677" y2="179.532" gradientUnits="userSpaceOnUse">
<stop stop-color="white" stop-opacity="0.07"/>
<stop offset="1" stop-color="white"/>
</linearGradient>
<linearGradient id="paint5_linear_1059_1648" x1="352.091" y1="164.27" x2="107.499" y2="299.618" gradientUnits="userSpaceOnUse">
<stop stop-color="white" stop-opacity="0.07"/>
<stop offset="1" stop-color="white"/>
</linearGradient>
<linearGradient id="paint6_linear_1059_1648" x1="1241.66" y1="1829.13" x2="972.962" y2="2209.75" gradientUnits="userSpaceOnUse">
<stop stop-color="white"/>
<stop offset="1" stop-color="white" stop-opacity="0"/>
</linearGradient>
<linearGradient id="paint7_linear_1059_1648" x1="1089.39" y1="1417.14" x2="1199.56" y2="1705.62" gradientUnits="userSpaceOnUse">
<stop stop-color="white"/>
<stop offset="1" stop-color="white" stop-opacity="0"/>
</linearGradient>
<linearGradient id="paint8_linear_1059_1648" x1="585.869" y1="1362.08" x2="858.473" y2="1423.98" gradientUnits="userSpaceOnUse">
<stop stop-color="white" stop-opacity="0.07"/>
<stop offset="1" stop-color="white"/>
</linearGradient>
<linearGradient id="paint9_linear_1059_1648" x1="1712.51" y1="377.372" x2="1665.05" y2="600.249" gradientUnits="userSpaceOnUse">
<stop stop-color="#FFCFE5" stop-opacity="0.29"/>
<stop offset="1" stop-color="white"/>
</linearGradient>
<linearGradient id="paint10_linear_1059_1648" x1="1816" y1="1181.5" x2="1598.63" y2="933.941" gradientUnits="userSpaceOnUse">
<stop stop-color="#FFC3E0"/>
<stop offset="0.0001" stop-color="white"/>
<stop offset="1" stop-color="#FFCFE5" stop-opacity="0"/>
</linearGradient>
<linearGradient id="paint11_linear_1059_1648" x1="1059.05" y1="1169.13" x2="1281.26" y2="1219.58" gradientUnits="userSpaceOnUse">
<stop stop-color="#FFCFE5" stop-opacity="0.29"/>
<stop offset="1" stop-color="white"/>
</linearGradient>
<linearGradient id="paint12_linear_1059_1648" x1="1737.51" y1="1259.37" x2="1690.05" y2="1482.25" gradientUnits="userSpaceOnUse">
<stop stop-color="#FFC3E0" stop-opacity="0.29"/>
<stop offset="1" stop-color="white"/>
</linearGradient>
<linearGradient id="paint13_linear_1059_1648" x1="1640.5" y1="1821" x2="1810.89" y2="2103.34" gradientUnits="userSpaceOnUse">
<stop stop-color="#FFC3E0"/>
<stop offset="0.0001" stop-color="white"/>
<stop offset="1" stop-color="white" stop-opacity="0"/>
</linearGradient>
<linearGradient id="paint14_linear_1059_1648" x1="54.0457" y1="711.125" x2="276.264" y2="761.581" gradientUnits="userSpaceOnUse">
<stop stop-color="white" stop-opacity="0.07"/>
<stop offset="1" stop-color="white"/>
</linearGradient>
<linearGradient id="paint15_linear_1059_1648" x1="-13.0195" y1="1069.6" x2="105.497" y2="1096.51" gradientUnits="userSpaceOnUse">
<stop stop-color="white" stop-opacity="0.07"/>
<stop offset="1" stop-color="white"/>
</linearGradient>
<linearGradient id="paint16_linear_1059_1648" x1="1696.96" y1="1726.4" x2="1815.47" y2="1753.31" gradientUnits="userSpaceOnUse">
<stop stop-color="white" stop-opacity="0.07"/>
<stop offset="1" stop-color="white"/>
</linearGradient>
<linearGradient id="paint17_linear_1059_1648" x1="7.23597" y1="2215.19" x2="48.8297" y2="2100.99" gradientUnits="userSpaceOnUse">
<stop stop-color="white" stop-opacity="0.07"/>
<stop offset="1" stop-color="white"/>
</linearGradient>
<linearGradient id="paint18_linear_1059_1648" x1="255.361" y1="2111.31" x2="296.955" y2="1997.12" gradientUnits="userSpaceOnUse">
<stop stop-color="white" stop-opacity="0.07"/>
<stop offset="1" stop-color="white"/>
</linearGradient>
<linearGradient id="paint19_linear_1059_1648" x1="181.361" y1="2279.31" x2="222.955" y2="2165.12" gradientUnits="userSpaceOnUse">
<stop stop-color="white" stop-opacity="0.07"/>
<stop offset="1" stop-color="white"/>
</linearGradient>
<linearGradient id="paint20_linear_1059_1648" x1="1552.88" y1="384.141" x2="1445.81" y2="326.644" gradientUnits="userSpaceOnUse">
<stop stop-color="white" stop-opacity="0.07"/>
<stop offset="1" stop-color="white"/>
</linearGradient>
<linearGradient id="paint21_linear_1059_1648" x1="1407.05" y1="20.1253" x2="1629.26" y2="70.5815" gradientUnits="userSpaceOnUse">
<stop stop-color="#FFCFE5" stop-opacity="0.29"/>
<stop offset="1" stop-color="#FFC3E0"/>
</linearGradient>
<linearGradient id="paint22_linear_1059_1648" x1="498.513" y1="1825.37" x2="451.052" y2="2048.25" gradientUnits="userSpaceOnUse">
<stop stop-color="#FFCFE5" stop-opacity="0.29"/>
<stop offset="1" stop-color="white"/>
</linearGradient>
<clipPath id="clip0_1059_1648">
<rect width="1920" height="2240" fill="white"/>
</clipPath>
</defs>
</svg>
