<svg width="1920" height="860" viewBox="0 0 1920 860" fill="none" xmlns="http://www.w3.org/2000/svg">
<g clip-path="url(#clip0_1223_1666)">
<g opacity="0.5">
<circle cx="1472.91" cy="608.537" r="26.2092" stroke="#232323" stroke-width="2"/>
<path d="M1000.24 131.664L1254.43 -123.579V-248.574L1188.26 -312.647M1225.02 -312.647L1289.09 -248.574V-123.579L1038.05 131.664V226.199L946.67 321.784V338.59M1267.04 -312.647L1332.16 -244.372V-110.974L1076.92 143.219V249.307L1024.4 301.826M1372.07 -139.334V-91.0167L1105.28 171.579V306.028L934.065 480.391M1000.24 508.752V452.031L1138.89 314.431V187.335L1462.41 -135.133V-227.566L1374.18 -315.798M1299.6 -312.647L1374.18 -234.919L1372.07 -193.954M1409.89 -312.647L1505.47 -216.012V-123.579L1170.4 210.443V332.287L1060.11 445.729M1000.24 622.193V592.782L1208.22 393.21L1207.16 246.156L1572.7 -116.226V-220.214L1483.42 -312.647M1547.49 -312.647L1613.66 -244.372V-96.2686L1261.78 249.307V399.512M1160.95 578.077H1181.96L1311.15 445.729V266.113L1700.84 -127.78V-178.198L1845.8 -320M1794.33 -320L1721.85 -244.372H1694.54M1108.43 628.495H1171.45L1389.93 410.016V232.501L1754.41 -129.881V-190.803L1882.56 -320M1012.84 727.231H1108.43L1417.24 416.318V249.307L1782.77 -116.226V-181.35L1917.22 -320M1953.99 -320L1800.63 -165.594V-96.2686L1751.26 -47.951V82.2964L1687.19 146.37H1621.02L1509.67 257.71V304.977M1528.58 304.977V278.718L1637.82 170.529H1701.89L1774.37 99.1025V-40.5983L1823.74 -89.9663V-151.939L1991.8 -320M2117.85 -320L2046.42 -248.574M2007.56 -209.71L1949.79 -151.939V-89.9663L1820.59 38.1803V126.412L1737.61 211.493V278.718L1543.29 473.039V539.213L1493.92 588.581M1454 628.495L1399.38 683.115H1311.15L1261.78 732.483M1198.76 801.808H1270.19L1321.66 750.34H1399.38L1610.51 539.213V473.039L1804.83 278.718V203.09L2048.52 -40.5983V-89.9663L2142.01 -183.45H2265.95L2402.5 -320" stroke="#232323" stroke-width="2"/>
<circle cx="1525.43" cy="345.943" r="25.2092" fill="#232323"/>
<circle cx="1258.63" cy="421.57" r="25.2092" fill="#232323"/>
<circle cx="1010.74" cy="320.733" r="25.2092" fill="#232323"/>
<circle cx="916.209" cy="497.198" r="25.2092" fill="#232323"/>
<circle cx="1138.89" cy="577.026" r="25.2092" fill="#232323"/>
<circle cx="1004.44" cy="642.15" r="25.2092" fill="#232323"/>
<circle cx="1155.7" cy="806.009" r="25.2092" fill="#232323"/>
<circle cx="981.333" cy="150.571" r="26.2092" stroke="#232323" stroke-width="2"/>
<circle cx="941.418" cy="381.656" r="40.9145" stroke="#232323" stroke-width="2"/>
<circle cx="1525.43" cy="345.943" r="40.9145" stroke="#232323" stroke-width="2"/>
<circle cx="1155.7" cy="806.011" r="40.9145" stroke="#232323" stroke-width="2"/>
<circle cx="970.83" cy="726.181" r="40.9145" stroke="#232323" stroke-width="2"/>
<circle cx="1042.25" cy="467.787" r="26.2092" stroke="#232323" stroke-width="2"/>
<circle cx="1000.24" cy="535.011" r="26.2092" stroke="#232323" stroke-width="2"/>
<circle cx="1082.17" cy="627.445" r="26.2092" stroke="#232323" stroke-width="2"/>
<circle cx="1239.73" cy="751.39" r="26.2092" stroke="#232323" stroke-width="2"/>
<circle cx="943.519" cy="381.655" r="25.2092" fill="#232323"/>
<circle cx="970.829" cy="726.182" r="25.2092" fill="#232323"/>
</g>
<g opacity="0.5">
<circle cx="260" cy="205.77" r="26.2092" transform="rotate(-139.444 260 205.77)" stroke="#232323" stroke-width="2"/>
<path d="M309.064 875.412L-50.0212 904.064L-131.292 999.031L-122.675 1090.74M-150.607 1066.84L-157.628 976.494L-76.3568 881.526L280.334 850.826L341.799 779.001L473.378 765.796L484.305 753.027M-182.529 1039.52L-187.616 945.301L-100.881 843.949L258.318 816.778L327.296 736.175L401.346 730.42M-149.647 839.544L-118.231 802.834L255.211 776.791L342.628 674.641L586.08 653.486M554.243 588.912L517.363 632.007L322.554 646.402L239.917 742.966L-215.547 777.618L-275.647 847.846L-265.979 972.25M-207.268 1018.35L-213.391 910.8L-185.16 881.042M-291.063 946.636L-300.854 811.067L-240.755 740.838L231.001 704.92L310.223 612.347L467.777 597.867M628.001 502.723L608.879 525.069L321.105 541.474L226.29 653.883L-287.049 691.543L-354.661 770.55L-346.927 898.829M-395.608 857.169L-401.493 762.27L-305.197 649.745L186.84 615.976L284.502 501.855M477.216 431.75L461.255 418.091L277.043 434.642L160.259 571.108L-391.924 617.002L-424.705 655.308L-627.034 668.798M-587.93 702.262L-483.692 691.926L-462.943 709.683M549.9 427.591L502.017 386.614L193.969 410.554L78.5507 545.425L-433.99 583.768L-473.601 630.054L-654.966 644.894M686.72 414.723L614.097 352.574L177.318 388.009L68.7287 514.899L-446.659 554.953L-489.002 604.432L-681.302 622.357M-709.233 598.454L-492.324 580.851L-447.25 528.18L-378.326 523.569L-293.64 424.611L-203.299 417.59L-153.022 460.615L3.96401 448.415L34.6968 412.503M20.3319 400.21L3.25815 420.161L-150.083 431.333L-198.764 389.673L-300.27 396.817L-391.102 502.957L-460.709 508.367L-501.003 555.452L-737.963 573.868M-833.729 491.913L-733.021 484.087M-678.224 479.828L-596.769 473.498L-556.475 426.413L-374.995 413.054L-317.627 346.018L-199.262 335.329L-155.554 284.254L118.431 262.961L161.457 212.684L231.064 207.274M287.342 202.9L364.354 196.915L431.39 254.283L500.997 248.873M593.955 237.179L539.687 190.739L467.118 196.378L408.063 145.84L110.382 168.975L67.3562 219.252L-206.629 240.545L-255.801 298.004L-599.393 324.707L-631.492 362.216L-763.3 372.459L-857.47 291.871L-1050 306.834" stroke="#232323" stroke-width="2"/>
<circle cx="49.3617" cy="371.134" r="25.2092" transform="rotate(-139.444 49.3617 371.134)" fill="#232323"/>
<circle cx="301.239" cy="487.144" r="25.2092" transform="rotate(-139.444 301.239 487.144)" fill="#232323"/>
<circle cx="424.013" cy="724.934" r="25.2092" transform="rotate(-139.444 424.013 724.934)" fill="#232323"/>
<circle cx="610.574" cy="652.327" r="25.2092" transform="rotate(-139.444 610.574 652.327)" fill="#232323"/>
<circle cx="493.291" cy="446.89" r="25.2092" transform="rotate(-139.444 493.291 446.89)" fill="#232323"/>
<circle cx="637.786" cy="484.828" r="25.2092" transform="rotate(-139.444 637.786 484.828)" fill="#232323"/>
<circle cx="629.406" cy="261.989" r="25.2092" transform="rotate(-139.444 629.406 261.989)" fill="#232323"/>
<circle cx="335.72" cy="873.341" r="26.2092" transform="rotate(-139.444 335.72 873.341)" stroke="#232323" stroke-width="2"/>
<circle cx="516.297" cy="723.721" r="40.9145" transform="rotate(-139.444 516.297 723.721)" stroke="#232323" stroke-width="2"/>
<circle cx="49.3616" cy="371.134" r="40.9145" transform="rotate(-139.444 49.3616 371.134)" stroke="#232323" stroke-width="2"/>
<circle cx="629.406" cy="261.987" r="40.9145" transform="rotate(-139.444 629.406 261.987)" stroke="#232323" stroke-width="2"/>
<circle cx="717.958" cy="442.839" r="40.9145" transform="rotate(-139.444 717.958 442.839)" stroke="#232323" stroke-width="2"/>
<circle cx="495.687" cy="592.718" r="26.2092" transform="rotate(-139.444 495.687 592.718)" stroke="#232323" stroke-width="2"/>
<circle cx="571.317" cy="568.961" r="26.2092" transform="rotate(-139.444 571.317 568.961)" stroke="#232323" stroke-width="2"/>
<circle cx="569.168" cy="445.462" r="26.2092" transform="rotate(-139.444 569.168 445.462)" stroke="#232323" stroke-width="2"/>
<circle cx="530.048" cy="248.851" r="26.2092" transform="rotate(-139.444 530.048 248.851)" stroke="#232323" stroke-width="2"/>
<circle cx="514.702" cy="722.355" r="25.2092" transform="rotate(-139.444 514.702 722.355)" fill="#232323"/>
<circle cx="717.959" cy="442.838" r="25.2092" transform="rotate(-139.444 717.959 442.838)" fill="#232323"/>
</g>
</g>
<defs>
<clipPath id="clip0_1223_1666">
<rect width="1920" height="860" fill="white"/>
</clipPath>
</defs>
</svg>
