<svg width="50" height="50" viewBox="0 0 50 50" fill="none" xmlns="http://www.w3.org/2000/svg">
<rect width="50" height="50" fill="#5662F6"/>
<path d="M35.182 17.625C35.182 17.625 32.2639 15.271 28.8183 15L28.5065 15.6401C31.6234 16.4269 33.0511 17.5538 34.5457 18.9376C31.9708 17.5828 29.4295 16.3125 25 16.3125C20.5705 16.3125 18.0271 17.5828 15.4546 18.9376C16.945 17.5538 18.6469 16.303 21.4917 15.6401L21.182 15C17.5645 15.353 14.8183 17.625 14.8183 17.625C14.8183 17.625 11.5588 22.4974 11 32.0624C14.2844 35.9695 19.2726 36 19.2726 36L20.3152 34.5666C18.5443 33.9318 16.545 32.7966 14.818 30.7502C16.8778 32.3563 19.9884 34.0314 25 34.0314C30.0116 34.0314 33.1198 32.3584 35.182 30.7502C33.4529 32.7966 31.4536 33.9318 29.6848 34.5666L30.7274 36C30.7274 36 35.7136 35.9695 39 32.0624C38.4391 22.4974 35.182 17.625 35.182 17.625ZM20.8635 29.4371C19.6326 29.4371 18.6364 28.2627 18.6364 26.8121C18.6364 25.3626 19.6329 24.1873 20.8635 24.1873C22.0945 24.1873 23.091 25.3626 23.091 26.8121C23.091 28.263 22.0945 29.4371 20.8635 29.4371ZM29.1365 29.4371C27.9055 29.4371 26.909 28.2627 26.909 26.8121C26.909 25.3626 27.9055 24.1873 29.1365 24.1873C30.3671 24.1873 31.3636 25.3626 31.3636 26.8121C31.3636 28.263 30.365 29.4371 29.1365 29.4371Z" fill="white"/>
</svg>
