<svg width="44" height="44" viewBox="0 0 44 44" fill="none" xmlns="http://www.w3.org/2000/svg">
<g clip-path="url(#clip0_937_701)">
<path d="M22 0C34.1504 0 43.9997 9.84957 43.9997 22C43.9997 34.1493 34.1502 44.0011 22 44.0011C9.84956 44.0008 0 34.1493 0 22C0 9.84957 9.84956 0 22 0Z" fill="#5662F6"/>
<path d="M31.5507 14.879C31.5507 14.879 28.828 12.7491 25.6133 12.5039L25.3223 13.083C28.2305 13.7949 29.5625 14.8145 30.957 16.0665C28.5546 14.8408 26.1835 13.6914 22.0506 13.6914C17.9178 13.6914 15.5447 14.8408 13.1445 16.0665C14.5351 14.8145 16.123 13.6828 18.7773 13.083L18.4883 12.5039C15.1132 12.8233 12.5509 14.879 12.5509 14.879C12.5509 14.879 9.50966 19.2874 8.98828 27.9416C12.0527 31.4766 16.7069 31.5042 16.7069 31.5042L17.6796 30.2073C16.0273 29.633 14.1619 28.6058 12.5506 26.7544C14.4724 28.2075 17.3747 29.7231 22.0506 29.7231C26.7266 29.7231 29.6267 28.2094 31.5507 26.7544C29.9374 28.6058 28.072 29.633 26.4217 30.2073L27.3944 31.5042C27.3944 31.5042 32.0467 31.4766 35.113 27.9416C34.5897 19.2874 31.5507 14.879 31.5507 14.879ZM18.1912 25.5663C17.0427 25.5663 16.1132 24.5037 16.1132 23.1912C16.1132 21.8798 17.043 20.8164 18.1912 20.8164C19.3397 20.8164 20.2695 21.8798 20.2695 23.1912C20.2695 24.504 19.3397 25.5663 18.1912 25.5663ZM25.9101 25.5663C24.7616 25.5663 23.8318 24.5037 23.8318 23.1912C23.8318 21.8798 24.7616 20.8164 25.9101 20.8164C27.0583 20.8164 27.9881 21.8798 27.9881 23.1912C27.9881 24.504 27.0563 25.5663 25.9101 25.5663Z" fill="white"/>
</g>
<defs>
<clipPath id="clip0_937_701">
<rect width="44" height="44.0008" fill="white"/>
</clipPath>
</defs>
</svg>
