<svg width="24" height="24" viewBox="0 0 24 24" fill="none" xmlns="http://www.w3.org/2000/svg">
<path d="M16.8641 21.0206H5.70026C4.10726 21.0206 2.81738 19.7242 2.81738 18.1377V6.96735C2.81738 5.37435 4.11371 4.08447 5.70026 4.08447H12.5108C13.2202 4.08447 13.8007 4.66492 13.8007 5.37435C13.8007 6.08378 13.2202 6.66423 12.5108 6.66423H5.70026C5.53257 6.66423 5.39714 6.79966 5.39714 6.96735V18.1312C5.39714 18.2989 5.53257 18.4344 5.70026 18.4344H16.8641C17.0318 18.4344 17.1673 18.2989 17.1673 18.1312V11.5142C17.1673 10.8047 17.7477 10.2243 18.4571 10.2243C19.1666 10.2243 19.747 10.8047 19.747 11.5142V18.1377C19.747 19.7242 18.4571 21.0206 16.8641 21.0206Z" fill="#A8A6A6"/>
<path d="M10.5863 10.858L12.833 13.2515L18.2876 8.13127L16.0409 5.73783L10.5863 10.858Z" fill="#A8A6A6"/>
<path d="M18.547 4.07781L20.1142 5.7482C20.3013 5.94813 20.2948 6.26415 20.0949 6.45118L18.6889 7.7733L16.4316 5.37413L17.8376 4.05201C18.044 3.86498 18.3536 3.87787 18.547 4.07781Z" fill="#A8A6A6"/>
<path d="M10.1953 11.23L12.4397 13.6227L9.2666 14.3515L10.1953 11.23Z" fill="#A8A6A6"/>
</svg>
