<svg width="432" height="150" viewBox="0 0 432 150" fill="none" xmlns="http://www.w3.org/2000/svg">
<g clip-path="url(#clip0_988_5167)">
<rect width="432" height="150" fill="#FF8FC1"/>
<path d="M135.692 62.8967H108.769C112.645 58.0019 114.516 51.8171 114.004 45.5946C113.491 39.3721 110.633 33.5769 106.009 29.3823C101.384 25.1878 95.3379 22.9074 89.0951 23.0029C82.8522 23.0984 76.8789 25.5627 72.3846 29.8967C70.5717 31.7319 69.0885 33.8656 68 36.2044C66.9115 33.8656 65.4283 31.7319 63.6154 29.8967C59.1211 25.5627 53.1478 23.0984 46.9049 23.0029C40.6621 22.9074 34.6162 25.1878 29.9914 29.3823C25.3667 33.5769 22.5087 39.3721 21.9961 45.5946C21.4836 51.8171 23.3547 58.0019 27.2308 62.8967H0.307693C-2.95651 62.8967 -6.08702 64.1934 -8.39516 66.5015C-10.7033 68.8097 -12 71.9402 -12 75.2044V99.8198C-12 103.084 -10.7033 106.214 -8.39516 108.523C-6.08702 110.831 -2.95651 112.127 0.307693 112.127V161.358C0.307693 164.622 1.60439 167.753 3.91253 170.061C6.22067 172.369 9.35118 173.666 12.6154 173.666H123.385C126.649 173.666 129.779 172.369 132.087 170.061C134.396 167.753 135.692 164.622 135.692 161.358V112.127C138.957 112.127 142.087 110.831 144.395 108.523C146.703 106.214 148 103.084 148 99.8198V75.2044C148 71.9402 146.703 68.8097 144.395 66.5015C142.087 64.1934 138.957 62.8967 135.692 62.8967ZM81.0769 38.589C82.1964 37.3535 83.5553 36.3583 85.071 35.6638C86.5868 34.9693 88.2278 34.5901 89.8946 34.5491C91.5613 34.508 93.2191 34.8061 94.7672 35.4251C96.3153 36.0441 97.7214 36.9712 98.9004 38.1502C100.079 39.3291 101.006 40.7353 101.625 42.2834C102.244 43.8315 102.543 45.4892 102.501 47.156C102.46 48.8227 102.081 50.4638 101.387 51.9795C100.692 53.4953 99.6971 54.8541 98.4615 55.9736C94.6923 59.8198 83.6923 61.8967 74.3846 62.6659C75.1538 53.3582 77.2308 42.3582 81.0769 38.589ZM37.5385 38.589C39.8555 36.3059 42.9779 35.0261 46.2308 35.0261C49.4837 35.0261 52.606 36.3059 54.9231 38.589C58.7692 42.3582 60.8462 53.3582 61.6154 62.6659C52.3077 61.8967 41.3077 59.8198 37.5385 55.9736C35.2554 53.6565 33.9756 50.5342 33.9756 47.2813C33.9756 44.0284 35.2554 40.9061 37.5385 38.589ZM135.692 99.8198H74.1538V155.204C74.1538 156.836 73.5055 158.402 72.3514 159.556C71.1974 160.71 69.6321 161.358 68 161.358C66.3679 161.358 64.8026 160.71 63.6486 159.556C62.4945 158.402 61.8462 156.836 61.8462 155.204V99.8198H0.307693V75.2044H61.8462V99.8198H74.1538V75.2044H135.692V99.8198Z" fill="white" fill-opacity="0.3"/>
</g>
<defs>
<clipPath id="clip0_988_5167">
<rect width="432" height="150" fill="white"/>
</clipPath>
</defs>
</svg>
