<svg width="220" height="220" viewBox="0 0 220 220" fill="none" xmlns="http://www.w3.org/2000/svg">
<path d="M203.077 60.8579H166.058C171.387 54.1276 173.96 45.6235 173.255 37.0676C172.551 28.5116 168.621 20.5432 162.262 14.7757C155.903 9.00818 147.59 5.87265 139.006 6.00396C130.422 6.13528 122.208 9.52362 116.029 15.4829C113.536 18.0063 111.497 20.9402 110 24.156C108.503 20.9402 106.464 18.0063 103.971 15.4829C97.7915 9.52362 89.5782 6.13528 80.9943 6.00396C72.4104 5.87265 64.0973 9.00818 57.7382 14.7757C51.3792 20.5432 47.4495 28.5116 46.7447 37.0676C46.0399 45.6235 48.6128 54.1276 53.9423 60.8579H16.9231C12.4348 60.8579 8.13035 62.6409 4.95665 65.8146C1.78296 68.9883 0 73.2927 0 77.781V111.627C0 116.115 1.78296 120.42 4.95665 123.594C8.13035 126.767 12.4348 128.55 16.9231 128.55V196.243C16.9231 200.731 18.706 205.035 21.8797 208.209C25.0534 211.383 29.3579 213.166 33.8462 213.166H186.154C190.642 213.166 194.947 211.383 198.12 208.209C201.294 205.035 203.077 200.731 203.077 196.243V128.55C207.565 128.55 211.87 126.767 215.043 123.594C218.217 120.42 220 116.115 220 111.627V77.781C220 73.2927 218.217 68.9883 215.043 65.8146C211.87 62.6409 207.565 60.8579 203.077 60.8579ZM127.981 27.4348C129.52 25.736 131.388 24.3676 133.473 23.4127C135.557 22.4578 137.813 21.9363 140.105 21.8799C142.397 21.8235 144.676 22.2333 146.805 23.0845C148.933 23.9356 150.867 25.2104 152.488 26.8314C154.109 28.4525 155.384 30.386 156.235 32.5146C157.086 34.6432 157.496 36.9226 157.44 39.2144C157.383 41.5062 156.862 43.7626 155.907 45.8468C154.952 47.931 153.583 49.7994 151.885 51.3387C146.702 56.6271 131.577 59.4829 118.779 60.5406C119.837 47.7425 122.692 32.6175 127.981 27.4348ZM68.1154 27.4348C71.3014 24.2956 75.5946 22.5358 80.0673 22.5358C84.5401 22.5358 88.8332 24.2956 92.0192 27.4348C97.3077 32.6175 100.163 47.7425 101.221 60.5406C88.4231 59.4829 73.2981 56.6271 68.1154 51.3387C64.9761 48.1527 63.2164 43.8595 63.2164 39.3868C63.2164 34.914 64.9761 30.6208 68.1154 27.4348ZM203.077 111.627H118.462V187.781C118.462 190.025 117.57 192.177 115.983 193.764C114.396 195.351 112.244 196.243 110 196.243C107.756 196.243 105.604 195.351 104.017 193.764C102.43 192.177 101.538 190.025 101.538 187.781V111.627H16.9231V77.781H101.538V111.627H118.462V77.781H203.077V111.627Z" fill="white" fill-opacity="0.3"/>
</svg>
