<svg width="96" height="96" viewBox="0 0 96 96" fill="none" xmlns="http://www.w3.org/2000/svg">
<path d="M88.6154 26.6052H72.4615C74.7872 23.7092 75.9099 20.0499 75.6023 16.3683C75.2948 12.6867 73.58 9.25788 70.8051 6.77615C68.0303 4.29441 64.4028 2.9452 60.657 3.00171C56.9113 3.05821 53.3273 4.5162 50.6308 7.08047C49.543 8.16628 48.6531 9.42874 48 10.8125C47.3469 9.42874 46.457 8.16628 45.3692 7.08047C42.6727 4.5162 39.0887 3.05821 35.343 3.00171C31.5972 2.9452 27.9697 4.29441 25.1949 6.77615C22.42 9.25788 20.7052 12.6867 20.3977 16.3683C20.0901 20.0499 21.2128 23.7092 23.5385 26.6052H7.38462C5.42609 26.6052 3.54779 27.3724 2.1629 28.7381C0.778019 30.1037 0 31.9559 0 33.8872V48.4511C0 50.3824 0.778019 52.2346 2.1629 53.6002C3.54779 54.9659 5.42609 55.7331 7.38462 55.7331V84.8609C7.38462 86.7922 8.16263 88.6444 9.54752 90.01C10.9324 91.3756 12.8107 92.1429 14.7692 92.1429H81.2308C83.1893 92.1429 85.0676 91.3756 86.4525 90.01C87.8374 88.6444 88.6154 86.7922 88.6154 84.8609V55.7331C90.5739 55.7331 92.4522 54.9659 93.8371 53.6002C95.222 52.2346 96 50.3824 96 48.4511V33.8872C96 31.9559 95.222 30.1037 93.8371 28.7381C92.4522 27.3724 90.5739 26.6052 88.6154 26.6052ZM55.8462 12.2234C56.5178 11.4923 57.3332 10.9035 58.2426 10.4926C59.1521 10.0818 60.1367 9.85737 61.1367 9.83309C62.1368 9.80881 63.1314 9.98514 64.0603 10.3514C64.9892 10.7177 65.8329 11.2662 66.5402 11.9637C67.2476 12.6612 67.8039 13.4932 68.1753 14.4092C68.5467 15.3251 68.7255 16.3059 68.7009 17.2921C68.6763 18.2782 68.4487 19.2492 68.032 20.146C67.6154 21.0428 67.0182 21.8468 66.2769 22.5091C64.0154 24.7847 57.4154 26.0136 51.8308 26.4687C52.2923 20.9617 53.5385 14.4535 55.8462 12.2234ZM29.7231 12.2234C31.1133 10.8725 32.9867 10.1153 34.9385 10.1153C36.8902 10.1153 38.7636 10.8725 40.1538 12.2234C42.4615 14.4535 43.7077 20.9617 44.1692 26.4687C38.5846 26.0136 31.9846 24.7847 29.7231 22.5091C28.3532 21.1382 27.5853 19.2909 27.5853 17.3662C27.5853 15.4416 28.3532 13.5943 29.7231 12.2234ZM88.6154 48.4511H51.6923V81.2199C51.6923 82.1856 51.3033 83.1117 50.6109 83.7945C49.9184 84.4773 48.9793 84.8609 48 84.8609C47.0207 84.8609 46.0816 84.4773 45.3891 83.7945C44.6967 83.1117 44.3077 82.1856 44.3077 81.2199V48.4511H7.38462V33.8872H44.3077V48.4511H51.6923V33.8872H88.6154V48.4511Z" fill="white"/>
</svg>
