<svg width="24" height="24" viewBox="0 0 24 24" fill="none" xmlns="http://www.w3.org/2000/svg">
<path d="M20.4615 6.91776H17.0962C17.5807 6.31441 17.8146 5.55206 17.7505 4.78506C17.6864 4.01806 17.3292 3.30373 16.7511 2.7867C16.173 2.26967 15.4172 1.98858 14.6369 2.00036C13.8565 2.01213 13.1099 2.31588 12.5481 2.8501C12.3215 3.07631 12.1361 3.33932 12 3.6276C11.8639 3.33932 11.6785 3.07631 11.4519 2.8501C10.8901 2.31588 10.1435 2.01213 9.36312 2.00036C8.58276 1.98858 7.82702 2.26967 7.24893 2.7867C6.67084 3.30373 6.31359 4.01806 6.24952 4.78506C6.18545 5.55206 6.41934 6.31441 6.90385 6.91776H3.53846C3.13044 6.91776 2.73912 7.07759 2.4506 7.3621C2.16209 7.6466 2 8.03248 2 8.43483V11.469C2 11.8713 2.16209 12.2572 2.4506 12.5417C2.73912 12.8262 3.13044 12.9861 3.53846 12.9861V19.0544C3.53846 19.4567 3.70055 19.8426 3.98907 20.1271C4.27758 20.4116 4.6689 20.5714 5.07692 20.5714H18.9231C19.3311 20.5714 19.7224 20.4116 20.0109 20.1271C20.2995 19.8426 20.4615 19.4567 20.4615 19.0544V12.9861C20.8696 12.9861 21.2609 12.8262 21.5494 12.5417C21.8379 12.2572 22 11.8713 22 11.469V8.43483C22 8.03248 21.8379 7.6466 21.5494 7.3621C21.2609 7.07759 20.8696 6.91776 20.4615 6.91776ZM13.6346 3.92153C13.7746 3.76924 13.9444 3.64657 14.1339 3.56097C14.3233 3.47537 14.5285 3.42862 14.7368 3.42356C14.9452 3.4185 15.1524 3.45524 15.3459 3.53154C15.5394 3.60784 15.7152 3.72212 15.8625 3.86744C16.0099 4.01276 16.1258 4.18609 16.2032 4.37691C16.2806 4.56773 16.3178 4.77207 16.3127 4.97752C16.3076 5.18297 16.2601 5.38524 16.1733 5.57208C16.0865 5.75891 15.9621 5.92641 15.8077 6.0644C15.3365 6.53849 13.9615 6.79449 12.7981 6.88931C12.8942 5.74202 13.1538 4.38614 13.6346 3.92153ZM8.19231 3.92153C8.48194 3.64011 8.87223 3.48236 9.27885 3.48236C9.68546 3.48236 10.0757 3.64011 10.3654 3.92153C10.8462 4.38614 11.1058 5.74202 11.2019 6.88931C10.0385 6.79449 8.66346 6.53849 8.19231 6.0644C7.90692 5.77879 7.74694 5.39393 7.74694 4.99297C7.74694 4.59201 7.90692 4.20714 8.19231 3.92153ZM20.4615 11.469H12.7692V18.2958C12.7692 18.497 12.6882 18.6899 12.5439 18.8322C12.3997 18.9744 12.204 19.0544 12 19.0544C11.796 19.0544 11.6003 18.9744 11.4561 18.8322C11.3118 18.6899 11.2308 18.497 11.2308 18.2958V11.469H3.53846V8.43483H11.2308V11.469H12.7692V8.43483H20.4615V11.469Z" fill="#A8A8A8" fill-opacity="0.5"/>
</svg>
