<svg width="480" height="622" viewBox="0 0 480 622" fill="none" xmlns="http://www.w3.org/2000/svg">
<g clip-path="url(#clip0_918_879)">
<path opacity="0.04" d="M468.564 406.249C478.6 420.662 479.963 439.405 472.118 455.118L441.248 516.949L411.877 579.506C404.413 595.404 388.862 605.956 371.332 607.018L302.35 611.2L233.488 617.042C215.988 618.527 199.075 610.336 189.389 595.685L151.277 538.035L111.786 481.321C101.75 466.908 100.387 448.165 108.233 432.452L139.103 370.62L168.474 308.063C175.938 292.166 191.488 281.614 209.019 280.551L278.001 276.37L346.863 270.527C364.363 269.042 381.276 277.234 390.962 291.884L429.074 349.534L468.564 406.249Z" fill="url(#paint0_linear_918_879)"/>
<path opacity="0.02" d="M446.617 199.467C449.498 213.816 444.312 228.593 433.096 237.995L401.715 264.3L370.978 291.354C359.992 301.023 344.602 303.921 330.851 298.909L292.38 284.885L253.582 271.793C239.715 267.113 229.51 255.234 226.976 240.819L219.885 200.49L211.825 160.344C208.944 145.995 214.129 131.218 225.345 121.816L256.726 95.5106L287.463 68.4569C298.449 58.7872 313.84 55.8896 327.59 60.902L366.061 74.9256L404.859 88.0181C418.726 92.6976 428.931 104.577 431.465 118.992L438.556 159.32L446.617 199.467Z" fill="url(#paint1_linear_918_879)"/>
<path opacity="0.02" d="M58.4612 437.345C67.9371 441.24 74.5296 449.998 75.65 460.182L80.2365 501.87L85.8263 543.436C87.1917 553.59 82.9029 563.679 74.6439 569.741L40.8337 594.557L7.63134 620.181C-0.479135 626.44 -11.3605 627.77 -20.7399 623.649L-59.1366 606.776L-97.9287 590.834C-107.405 586.94 -113.997 578.181 -115.118 567.998L-119.704 526.309L-125.294 484.743C-126.659 474.59 -122.37 464.501 -114.111 458.439L-80.3013 433.623L-47.0989 407.999C-38.9884 401.74 -28.107 400.41 -18.7277 404.531L19.669 421.403L58.4612 437.345Z" fill="url(#paint2_linear_918_879)"/>
<path opacity="0.04" d="M177.132 -28.7507C186.608 -24.8565 193.201 -16.0979 194.321 -5.91446L198.907 35.7742L204.497 77.3403C205.863 87.4938 201.574 97.5824 193.315 103.644L159.505 128.461L126.302 154.085C118.192 160.344 107.31 161.674 97.931 157.553L59.5343 140.68L20.7422 124.738C11.2663 120.844 4.67371 112.085 3.55335 101.902L-1.03316 60.2131L-6.62294 18.6471C-7.98838 8.49354 -3.69953 -1.59504 4.55943 -7.65704L38.3696 -32.4734L71.572 -58.0973C79.6825 -64.3566 90.5639 -65.6866 99.9432 -61.5652L138.34 -44.6928L177.132 -28.7507Z" fill="url(#paint3_linear_918_879)"/>
</g>
<defs>
<linearGradient id="paint0_linear_918_879" x1="143.813" y1="341.8" x2="351.266" y2="553.659" gradientUnits="userSpaceOnUse">
<stop stop-color="white"/>
<stop offset="1" stop-color="white" stop-opacity="0"/>
</linearGradient>
<linearGradient id="paint1_linear_918_879" x1="267.205" y1="79.2369" x2="337.319" y2="262.836" gradientUnits="userSpaceOnUse">
<stop stop-color="white"/>
<stop offset="1" stop-color="white" stop-opacity="0"/>
</linearGradient>
<linearGradient id="paint2_linear_918_879" x1="-126.698" y1="510.244" x2="46.7946" y2="549.637" gradientUnits="userSpaceOnUse">
<stop stop-color="#FFCFE5" stop-opacity="0.29"/>
<stop offset="1" stop-color="white"/>
</linearGradient>
<linearGradient id="paint3_linear_918_879" x1="-8.02738" y1="44.1477" x2="165.465" y2="83.5404" gradientUnits="userSpaceOnUse">
<stop stop-color="white" stop-opacity="0.07"/>
<stop offset="1" stop-color="white"/>
</linearGradient>
<clipPath id="clip0_918_879">
<rect width="480" height="622" fill="white"/>
</clipPath>
</defs>
</svg>
