<svg width="32" height="32" viewBox="0 0 32 32" fill="none" xmlns="http://www.w3.org/2000/svg">
<path d="M15.9997 15.9998C16.733 15.9998 17.361 15.7385 17.8837 15.2158C18.4055 14.6941 18.6663 14.0665 18.6663 13.3332C18.6663 12.5998 18.4055 11.9718 17.8837 11.4492C17.361 10.9274 16.733 10.6665 15.9997 10.6665C15.2663 10.6665 14.6388 10.9274 14.117 11.4492C13.5943 11.9718 13.333 12.5998 13.333 13.3332C13.333 14.0665 13.5943 14.6941 14.117 15.2158C14.6388 15.7385 15.2663 15.9998 15.9997 15.9998ZM16.6447 28.7781C16.2748 29.1001 15.7246 29.1001 15.3546 28.7781C12.0991 25.9443 9.64208 23.3013 7.98367 20.8492C6.21656 18.2385 5.33301 15.8221 5.33301 13.5998C5.33301 10.2665 6.40545 7.61095 8.55034 5.63317C10.6943 3.65539 13.1775 2.6665 15.9997 2.6665C18.8219 2.6665 21.305 3.65539 23.449 5.63317C25.5939 7.61095 26.6663 10.2665 26.6663 13.5998C26.6663 15.8221 25.7832 18.2385 24.017 20.8492C22.3578 23.3013 19.9003 25.9443 16.6447 28.7781Z" fill="white"/>
</svg>
