<svg width="83" height="44" viewBox="0 0 83 44" fill="none" xmlns="http://www.w3.org/2000/svg">
<path d="M6.49188 31.2293C5.39433 31.2293 4.4369 31.0433 3.61958 30.6945C2.80225 30.3457 2.12504 29.8342 1.61129 29.2064C1.0742 28.5786 0.67721 27.8345 0.396985 26.9742C0.11676 26.1139 0 25.2071 0 24.2072C0 23.2074 0.140112 22.2773 0.396985 21.417C0.67721 20.5567 1.0742 19.7894 1.61129 19.1616C2.14839 18.5338 2.8256 18.0222 3.61958 17.6502C4.4369 17.2782 5.39433 17.0922 6.49188 17.0922C7.58943 17.0922 8.54687 17.2782 9.36419 17.6502C10.1815 18.0222 10.8587 18.5105 11.4192 19.1616C11.9563 19.7894 12.3533 20.5567 12.6335 21.417C12.8904 22.2773 13.0305 23.2074 13.0305 24.2072C13.0305 25.2071 12.8904 26.1139 12.6335 26.9742C12.3766 27.8345 11.9796 28.5786 11.4192 29.2064C10.8821 29.8342 10.2049 30.3457 9.36419 30.6945C8.57022 31.0666 7.58943 31.2293 6.49188 31.2293ZM6.49188 28.4158C7.47267 28.4158 8.17323 28.0438 8.59357 27.323C9.01391 26.6022 9.22408 25.5559 9.22408 24.2072C9.22408 22.8586 9.01391 21.8123 8.59357 21.0915C8.17323 20.3707 7.47267 19.9987 6.49188 19.9987C5.53445 19.9987 4.83388 20.3707 4.41355 21.0915C3.99321 21.8123 3.75969 22.8586 3.75969 24.2072C3.75969 25.5559 3.96986 26.6022 4.41355 27.323C4.83388 28.0671 5.53445 28.4158 6.49188 28.4158ZM18.5883 25.0443C17.6075 24.7653 16.8369 24.3468 16.2998 23.812C15.7393 23.2539 15.4824 22.4401 15.4824 21.3473C15.4824 20.0219 15.9495 18.9988 16.9069 18.2315C17.8644 17.4874 19.1487 17.1154 20.8067 17.1154C22.1795 17.1222 23.5399 17.3742 24.8233 17.8595C24.7766 18.3013 24.7065 18.7896 24.5664 19.2778C24.4263 19.7661 24.2628 20.1847 24.076 20.5567C23.6557 20.3939 23.1886 20.2312 22.6982 20.0917C22.1845 19.9521 21.6474 19.9056 21.1103 19.9056C20.5265 19.9056 20.0595 19.9987 19.7325 20.1847C19.4056 20.3707 19.2421 20.6497 19.2421 21.0682C19.2421 21.4403 19.3589 21.7193 19.5924 21.8821C19.8259 22.0448 20.1529 22.1843 20.5966 22.3238L22.0911 22.7656C22.5815 22.9051 23.0252 23.0679 23.4222 23.2772C23.8191 23.4864 24.1461 23.719 24.4263 24.0212C24.7065 24.3235 24.9167 24.6723 25.0802 25.1141C25.2436 25.5559 25.3137 26.0906 25.3137 26.6952C25.3137 27.3462 25.1736 27.9275 24.9167 28.4856C24.6432 29.0487 24.2438 29.5418 23.7491 29.9272C23.2353 30.3457 22.6048 30.648 21.8809 30.9038C21.0712 31.1481 20.2282 31.2658 19.3822 31.2526C18.9619 31.2526 18.5883 31.2293 18.238 31.2061C17.8877 31.1828 17.5608 31.1363 17.2339 31.0666C16.9069 30.9968 16.6033 30.927 16.2764 30.834C15.9728 30.741 15.6226 30.6248 15.2489 30.4853C15.2723 30.0202 15.3657 29.5319 15.5058 29.0669C15.6459 28.5786 15.8094 28.1136 16.0195 27.6718C16.6033 27.9043 17.1404 28.0671 17.6542 28.1833C18.1679 28.2996 18.705 28.3461 19.2655 28.3461C19.499 28.3461 19.7792 28.3228 20.0595 28.2763C20.3397 28.2298 20.6199 28.1601 20.8534 28.0438C21.0869 27.9275 21.2971 27.788 21.4606 27.602C21.624 27.416 21.7175 27.1835 21.7175 26.8812C21.7175 26.4627 21.6007 26.1604 21.3438 25.9744C21.0869 25.7884 20.7367 25.6256 20.293 25.4861L18.5883 25.0443ZM27.7656 17.4409C28.3962 17.3479 29.0033 17.2782 29.6338 17.2782C30.241 17.2782 30.8715 17.3247 31.502 17.4409V24.5793C31.502 25.3001 31.5487 25.8814 31.6654 26.3464C31.7822 26.8115 31.9457 27.1835 32.1792 27.4393C32.4127 27.7183 32.7163 27.9043 33.0666 28.0206C33.4169 28.1368 33.8372 28.1833 34.3042 28.1833C34.9581 28.1833 35.4952 28.1136 35.9389 27.9973V17.4409C36.5694 17.3479 37.1765 17.2782 37.7837 17.2782C38.3909 17.2782 39.0214 17.3247 39.6519 17.4409V30.4155C39.0914 30.6015 38.3442 30.7875 37.4334 30.9735C35.6386 31.3213 33.7956 31.3449 31.9924 31.0433C31.1751 30.9038 30.4511 30.6015 29.8206 30.1597C29.1901 29.7179 28.6997 29.0436 28.3494 28.1833C27.9758 27.323 27.789 26.1604 27.789 24.7188V17.4409H27.7656ZM43.1547 30.927C43.0613 30.276 42.9912 29.6482 42.9912 29.0204C42.9912 28.3926 43.0379 27.7415 43.1547 27.0905C43.8085 26.9975 44.439 26.9277 45.0696 26.9277C45.7001 26.9277 46.3539 26.9742 47.0078 27.0905C47.1012 27.7415 47.1712 28.3926 47.1712 28.9971C47.1712 29.6482 47.1245 30.276 47.0078 30.927C46.3539 31.02 45.7001 31.0898 45.0929 31.0898C44.439 31.0666 43.8085 31.02 43.1547 30.927ZM43.0613 12.1628C43.7385 12.0698 44.4157 12 45.0696 12C45.7468 12 46.424 12.0465 47.1245 12.1628L46.8677 24.9281C46.2605 25.0211 45.6767 25.0908 45.1163 25.0908C44.5325 25.0908 43.9253 25.0443 43.3415 24.9281L43.0613 12.1628Z" fill="#E00087"/>
<rect x="55.0093" y="19.3906" width="1.80706" height="7.36723" fill="white"/>
<rect x="55.0093" y="19.3906" width="1.80706" height="7.36723" fill="white"/>
<rect x="70.9946" y="19.3906" width="1.80706" height="7.36723" fill="white"/>
<rect x="65.1587" y="22.7256" width="1.80706" height="4.03112" fill="white"/>
<rect x="59.041" y="22.3086" width="1.52905" height="4.03112" transform="rotate(90 59.041 22.3086)" fill="white"/>
<path d="M59.5953 19.4588L61.6804 19.4588L58.5259 23.7828L57.1887 22.8464L59.5953 19.4588Z" fill="white"/>
<path d="M61.7517 26.7549L59.6666 26.7549L57.3731 23.2798L58.8326 22.4458L61.7517 26.7549Z" fill="white"/>
<path d="M67.8806 19.4941L69.8133 19.4941L66.9584 24.3563L65.5446 23.5401L67.8806 19.4941Z" fill="white"/>
<path d="M62.0999 19.3906L64.1849 19.3906L66.409 23.4217L65.1579 24.3253L62.0999 19.3906Z" fill="white"/>
<path d="M80.0296 19.3923L82.0744 19.3923L79.0567 26.7566L78.0142 26.7566L78.0142 24.3936L80.0296 19.3923Z" fill="white"/>
<path d="M74.4019 19.3174L76.3479 19.3174L78.3635 24.391L78.6416 26.7541L77.3211 26.7541L74.4019 19.3174Z" fill="white"/>
</svg>
