<svg width="480" height="1694" viewBox="0 0 480 1694" fill="none" xmlns="http://www.w3.org/2000/svg">
<g clip-path="url(#clip0_995_1599)">
<path opacity="0.04" d="M-89.8237 572.925C-101.029 554.047 -101.029 530.556 -89.8238 511.677L-59.6864 460.901L-30.7814 409.413C-20.0346 390.27 0.309059 378.524 22.2608 378.789L81.3032 379.5L140.346 378.789C162.297 378.524 182.641 390.27 193.388 409.413L222.293 460.901L252.43 511.677C263.635 530.556 263.635 554.047 252.43 572.925L222.293 623.702L193.388 675.19C182.641 694.333 162.297 706.078 140.346 705.814L81.3032 705.102L22.2609 705.814C0.309067 706.078 -20.0346 694.333 -30.7814 675.19L-59.6864 623.702L-89.8237 572.925Z" fill="url(#paint0_linear_995_1599)"/>
<path opacity="0.02" d="M600.15 654.275C607.384 666.998 607.092 682.656 599.388 695.1L567.901 745.966L537.648 797.576C530.247 810.202 516.541 817.778 501.912 817.329L442.118 815.493L382.296 815.098C367.661 815.002 354.246 806.92 347.321 794.027L319.014 741.325L289.445 689.32C282.21 676.598 282.502 660.94 290.206 648.496L321.693 597.63L351.946 546.02C359.347 533.394 373.053 525.818 387.682 526.267L447.477 528.103L507.298 528.497C521.933 528.594 535.348 536.676 542.273 549.569L570.58 602.271L600.15 654.275Z" fill="url(#paint1_linear_995_1599)"/>
<path opacity="0.02" d="M-68.7815 108.147C-83.4006 107.453 -96.4736 98.8303 -102.867 85.6649L-128.999 31.8513L-156.42 -21.3169C-163.129 -34.3244 -162.198 -49.9572 -153.993 -62.0766L-120.455 -111.615L-88.121 -161.946C-80.2105 -174.26 -66.2066 -181.27 -51.6084 -180.224L8.06163 -175.948L67.8174 -173.112C82.4365 -172.418 95.5095 -163.795 101.903 -150.63L128.035 -96.8165L155.456 -43.6483C162.165 -30.6408 161.234 -15.0079 153.029 -2.88854L119.491 46.6494L87.1569 96.9812C79.2464 109.295 65.2425 116.305 50.6443 115.259L-9.02572 110.983L-68.7815 108.147Z" fill="url(#paint2_linear_995_1599)"/>
<path opacity="0.04" d="M497.788 -190.771C519.07 -185.38 535.708 -168.797 541.169 -147.534L552.922 -101.775L565.774 -56.3118C571.746 -35.1863 565.704 -12.4859 550.02 2.87541L516.268 35.9335L483.322 69.7953C468.013 85.5301 445.333 91.6476 424.187 85.7456L378.682 73.0443L332.884 61.4432C311.603 56.0525 294.965 39.4696 289.503 18.2064L277.75 -27.553L264.898 -73.0159C258.926 -94.1414 264.968 -116.842 280.652 -132.203L314.404 -165.261L347.35 -199.123C362.659 -214.858 385.34 -220.975 406.485 -215.073L451.99 -202.372L497.788 -190.771Z" fill="url(#paint3_linear_995_1599)"/>
<path opacity="0.02" d="M357.644 229.166C359.532 239.979 355.363 250.96 346.775 257.796L302.024 293.421L258.145 330.114C249.724 337.155 238.13 339.036 227.916 335.017L174.688 314.074L120.972 294.419C110.663 290.648 103.238 281.547 101.611 270.692L93.1346 214.124L83.2974 157.776C81.4096 146.963 85.578 135.982 94.1658 129.146L138.917 93.5211L182.796 56.8282C191.217 49.7868 202.811 47.9063 213.025 51.9254L266.253 72.8685L319.97 92.5228C330.278 96.2945 337.703 105.395 339.33 116.25L347.807 172.818L357.644 229.166Z" fill="url(#paint4_linear_995_1599)"/>
<path opacity="0.02" d="M345.891 491.097C339.409 492.26 332.809 489.79 328.683 484.657L307.238 457.976L285.157 431.819C280.908 426.787 279.748 419.836 282.13 413.696L294.514 381.784L306.126 349.582C308.36 343.387 313.799 338.906 320.308 337.9L354.137 332.669L387.83 326.624C394.312 325.461 400.912 327.931 405.038 333.065L426.483 359.746L448.564 385.902C452.813 390.935 453.973 397.886 451.591 404.025L439.207 435.938L427.595 468.139C425.361 474.334 419.922 478.815 413.413 479.822L379.584 485.053L345.891 491.097Z" fill="url(#paint5_linear_995_1599)"/>
<path opacity="0.04" d="M424.991 1316.64C437.536 1334.66 439.24 1358.09 429.433 1377.73L389.501 1457.71L351.507 1538.63C342.177 1558.51 322.739 1571.7 300.826 1573.02L211.593 1578.43L122.515 1585.99C100.641 1587.85 79.4986 1577.61 67.3917 1559.29L18.0908 1484.72L-32.9929 1411.36C-45.5377 1393.34 -47.2414 1369.91 -37.4351 1350.27L2.4974 1270.29L40.4909 1189.37C49.821 1169.49 69.2592 1156.3 91.1724 1154.97L180.406 1149.57L269.483 1142.01C291.358 1140.15 312.5 1150.39 324.607 1168.7L373.908 1243.28L424.991 1316.64Z" fill="url(#paint6_linear_995_1599)"/>
<path opacity="0.02" d="M395.353 1045.96C399.675 1067.49 391.896 1089.65 375.072 1103.76L338.866 1134.11L303.401 1165.32C286.922 1179.83 263.837 1184.17 243.211 1176.65L198.823 1160.47L154.059 1145.37C133.258 1138.35 117.951 1120.53 114.15 1098.91L105.968 1052.38L96.6681 1006.06C92.3466 984.532 100.125 962.367 116.949 948.264L153.156 917.913L188.62 886.699C205.099 872.194 228.185 867.848 248.81 875.366L293.198 891.547L337.963 906.653C358.764 913.672 374.07 931.491 377.872 953.113L386.053 999.644L395.353 1045.96Z" fill="url(#paint7_linear_995_1599)"/>
<path opacity="0.04" d="M54.4269 930.075C64.5797 934.248 71.6432 943.632 72.8436 954.543L79.0988 1011.4L86.7223 1068.09C88.1853 1078.97 83.5901 1089.78 74.7412 1096.27L28.6297 1130.12L-16.6529 1165.06C-25.3427 1171.77 -37.0013 1173.2 -47.0506 1168.78L-99.4173 1145.77L-152.323 1124.03C-162.476 1119.85 -169.54 1110.47 -170.74 1099.56L-176.995 1042.7L-184.619 986.013C-186.082 975.134 -181.487 964.325 -172.638 957.83L-126.526 923.984L-81.2436 889.037C-72.5538 882.331 -60.8952 880.906 -50.8459 885.322L1.52087 908.333L54.4269 930.075Z" fill="url(#paint8_linear_995_1599)"/>
<path opacity="0.02" d="M424.529 976.657C435.098 980.786 442.488 990.119 443.737 1000.92L448.164 1039.16L453.609 1077.65C455.105 1088.23 450.478 1098.67 441.525 1104.91L408.433 1128L375.935 1151.84C367.144 1158.29 355.311 1159.63 345.035 1155.34L307.629 1139.71L270.192 1125.09C259.624 1120.96 252.233 1111.63 250.984 1100.83L246.557 1062.59L241.112 1024.09C239.616 1013.52 244.243 1003.08 253.196 996.834L286.288 973.745L318.786 949.904C327.578 943.454 339.41 942.115 349.686 946.408L387.092 962.032L424.529 976.657Z" fill="url(#paint9_linear_995_1599)"/>
</g>
<defs>
<linearGradient id="paint0_linear_995_1599" x1="215.708" y1="651.249" x2="29.9374" y2="431.72" gradientUnits="userSpaceOnUse">
<stop stop-color="white"/>
<stop offset="1" stop-color="#FFCFE5" stop-opacity="0"/>
</linearGradient>
<linearGradient id="paint1_linear_995_1599" x1="345.405" y1="569.52" x2="440.712" y2="688.814" gradientUnits="userSpaceOnUse">
<stop stop-color="white"/>
<stop offset="1" stop-color="white" stop-opacity="0"/>
</linearGradient>
<linearGradient id="paint2_linear_995_1599" x1="139.1" y1="-61.7454" x2="-12.6732" y2="-45.0367" gradientUnits="userSpaceOnUse">
<stop stop-color="white"/>
<stop offset="1" stop-color="white" stop-opacity="0"/>
</linearGradient>
<linearGradient id="paint3_linear_995_1599" x1="264.74" y1="-48.6573" x2="515.633" y2="-28.1793" gradientUnits="userSpaceOnUse">
<stop stop-color="white"/>
<stop offset="1" stop-color="white" stop-opacity="0"/>
</linearGradient>
<linearGradient id="paint4_linear_995_1599" x1="151.541" y1="74.9656" x2="227.425" y2="289.834" gradientUnits="userSpaceOnUse">
<stop stop-color="#FFCFE5" stop-opacity="0.29"/>
<stop offset="1" stop-color="white"/>
</linearGradient>
<linearGradient id="paint5_linear_995_1599" x1="437.629" y1="367.253" x2="309.177" y2="413.295" gradientUnits="userSpaceOnUse">
<stop stop-color="#FFCFE5" stop-opacity="0.29"/>
<stop offset="1" stop-color="white"/>
</linearGradient>
<linearGradient id="paint6_linear_995_1599" x1="8.53143" y1="1233.37" x2="274.248" y2="1504.73" gradientUnits="userSpaceOnUse">
<stop stop-color="white"/>
<stop offset="1" stop-color="white" stop-opacity="0"/>
</linearGradient>
<linearGradient id="paint7_linear_995_1599" x1="166.578" y1="897.069" x2="256.384" y2="1132.23" gradientUnits="userSpaceOnUse">
<stop stop-color="white"/>
<stop offset="1" stop-color="white" stop-opacity="0"/>
</linearGradient>
<linearGradient id="paint8_linear_995_1599" x1="-185.954" y1="1022.12" x2="36.2647" y2="1072.58" gradientUnits="userSpaceOnUse">
<stop stop-color="white" stop-opacity="0.07"/>
<stop offset="1" stop-color="white"/>
</linearGradient>
<linearGradient id="paint9_linear_995_1599" x1="239.505" y1="1047.19" x2="413.533" y2="1088.75" gradientUnits="userSpaceOnUse">
<stop stop-color="#FFCFE5" stop-opacity="0.29"/>
<stop offset="1" stop-color="white"/>
</linearGradient>
<clipPath id="clip0_995_1599">
<rect width="480" height="1694" fill="white"/>
</clipPath>
</defs>
</svg>
