<svg width="480" height="2306" viewBox="0 0 480 2306" fill="none" xmlns="http://www.w3.org/2000/svg">
<g clip-path="url(#clip0_1103_859)">
<path opacity="0.04" d="M468.565 406.249C478.601 420.662 479.964 439.405 472.119 455.118L441.249 516.949L411.878 579.506C404.414 595.404 388.863 605.956 371.332 607.018L302.35 611.2L233.489 617.042C215.989 618.527 199.075 610.336 189.39 595.685L151.277 538.035L111.787 481.321C101.751 466.908 100.388 448.165 108.233 432.452L139.103 370.62L168.474 308.063C175.938 292.166 191.489 281.614 209.019 280.551L278.002 276.37L346.863 270.527C364.363 269.042 381.277 277.234 390.962 291.884L429.074 349.534L468.565 406.249Z" fill="url(#paint0_linear_1103_859)"/>
<path opacity="0.02" d="M446.617 199.467C449.498 213.816 444.312 228.593 433.096 237.995L401.715 264.3L370.978 291.354C359.992 301.024 344.602 303.921 330.851 298.909L292.38 284.885L253.582 271.793C239.715 267.113 229.51 255.234 226.976 240.819L219.885 200.491L211.825 160.344C208.944 145.995 214.129 131.218 225.345 121.816L256.726 95.5108L287.463 68.4571C298.449 58.7874 313.84 55.8899 327.59 60.9023L366.061 74.9259L404.859 88.0183C418.726 92.6979 428.931 104.577 431.465 118.992L438.556 159.321L446.617 199.467Z" fill="url(#paint1_linear_1103_859)"/>
<path opacity="0.02" d="M58.4612 437.345C67.9371 441.24 74.5296 449.998 75.65 460.182L80.2365 501.87L85.8263 543.436C87.1917 553.59 82.9029 563.679 74.6439 569.741L40.8337 594.557L7.63134 620.181C-0.479135 626.44 -11.3605 627.77 -20.7399 623.649L-59.1366 606.776L-97.9287 590.834C-107.405 586.94 -113.997 578.181 -115.118 567.998L-119.704 526.309L-125.294 484.743C-126.659 474.59 -122.37 464.501 -114.111 458.439L-80.3013 433.623L-47.0989 407.999C-38.9884 401.74 -28.107 400.41 -18.7277 404.531L19.669 421.403L58.4612 437.345Z" fill="url(#paint2_linear_1103_859)"/>
<path opacity="0.04" d="M177.132 -28.7507C186.608 -24.8565 193.201 -16.0979 194.321 -5.91446L198.907 35.7742L204.497 77.3403C205.863 87.4938 201.574 97.5824 193.315 103.644L159.505 128.461L126.302 154.085C118.192 160.344 107.31 161.674 97.931 157.553L59.5343 140.68L20.7422 124.738C11.2663 120.844 4.67371 112.085 3.55335 101.902L-1.03316 60.2131L-6.62294 18.6471C-7.98838 8.49354 -3.69953 -1.59504 4.55943 -7.65704L38.3696 -32.4734L71.572 -58.0973C79.6825 -64.3566 90.5639 -65.6866 99.9432 -61.5652L138.34 -44.6928L177.132 -28.7507Z" fill="url(#paint3_linear_1103_859)"/>
<path opacity="0.04" d="M342.627 1455.81C332.319 1466.2 317.16 1470.13 303.102 1466.06L232.16 1445.52L160.743 1426.69C146.591 1422.96 135.606 1411.8 132.103 1397.59L114.423 1325.88L95.0198 1254.61C91.1748 1240.49 95.3493 1225.4 105.904 1215.26L159.166 1164.09L211.18 1111.66C221.488 1101.27 236.647 1097.34 250.705 1101.41L321.647 1121.95L393.064 1140.78C407.216 1144.51 418.201 1155.67 421.704 1169.88L439.384 1241.59L458.787 1312.86C462.632 1326.98 458.458 1342.07 447.903 1352.21L394.641 1403.38L342.627 1455.81Z" fill="url(#paint4_linear_1103_859)"/>
<path opacity="0.02" d="M433.345 979.417C436.226 993.766 431.04 1008.54 419.824 1017.95L388.444 1044.25L357.707 1071.3C346.72 1080.97 331.33 1083.87 317.58 1078.86L279.108 1064.84L240.311 1051.74C226.443 1047.06 216.239 1035.18 213.704 1020.77L206.614 980.441L198.553 940.295C195.672 925.945 200.858 911.168 212.074 901.766L243.454 875.461L274.192 848.407C285.178 838.738 300.568 835.84 314.319 840.852L352.79 854.876L391.588 867.969C405.455 872.648 415.659 884.528 418.194 898.942L425.284 939.271L433.345 979.417Z" fill="url(#paint5_linear_1103_859)"/>
<path opacity="0.02" d="M47.3846 1428.2C55.5068 1431.54 61.1576 1439.04 62.1179 1447.77L66.964 1491.82L72.8702 1535.74C74.0406 1544.44 70.3645 1553.09 63.2854 1558.29L27.5612 1584.51L-7.52061 1611.58C-14.4724 1616.95 -23.7994 1618.09 -31.8388 1614.55L-72.409 1596.73L-113.397 1579.88C-121.519 1576.54 -127.17 1569.04 -128.13 1560.31L-132.977 1516.26L-138.883 1472.34C-140.053 1463.64 -136.377 1454.99 -129.298 1449.79L-93.5737 1423.57L-58.4919 1396.5C-51.54 1391.13 -42.2131 1389.99 -34.1737 1393.53L6.39654 1411.35L47.3846 1428.2Z" fill="url(#paint6_linear_1103_859)"/>
<path opacity="0.02" d="M164.287 751.7C173.086 755.317 179.207 763.45 180.248 772.906L184.964 815.774L190.712 858.517C191.98 867.945 187.997 877.313 180.328 882.942L145.561 908.461L111.419 934.81C103.888 940.622 93.7838 941.857 85.0745 938.03L45.591 920.68L5.70086 904.287C-3.09821 900.671 -9.21986 892.538 -10.2602 883.082L-14.9765 840.213L-20.7245 797.471C-21.9924 788.042 -18.0099 778.674 -10.3409 773.045L24.4263 747.527L58.5684 721.177C66.0995 715.365 76.2037 714.13 84.9131 717.957L124.397 735.307L164.287 751.7Z" fill="url(#paint7_linear_1103_859)"/>
<path opacity="0.04" d="M558.006 2080.1C566.369 2092.11 567.505 2107.73 560.967 2120.82L527.976 2186.9L496.587 2253.75C490.367 2267 477.408 2275.8 462.8 2276.68L389.078 2281.15L315.485 2287.39C300.902 2288.63 286.807 2281.81 278.736 2269.6L238.005 2207.99L195.801 2147.37C187.438 2135.36 186.302 2119.74 192.84 2106.65L225.831 2040.57L257.22 1973.72C263.44 1960.47 276.398 1951.67 291.007 1950.79L364.729 1946.32L438.322 1940.08C452.905 1938.84 467 1945.66 475.071 1957.87L515.802 2019.48L558.006 2080.1Z" fill="url(#paint8_linear_1103_859)"/>
<path opacity="0.02" d="M533.344 1869.42C536.225 1883.77 531.039 1898.54 519.823 1907.95L488.443 1934.25L457.706 1961.3C446.719 1970.97 431.329 1973.87 417.579 1968.86L379.108 1954.84L340.31 1941.74C326.442 1937.06 316.238 1925.18 313.703 1910.77L306.613 1870.44L298.552 1830.29C295.671 1815.95 300.857 1801.17 312.073 1791.77L343.453 1765.46L374.191 1738.41C385.177 1728.74 400.567 1725.84 414.318 1730.85L452.789 1744.88L491.587 1757.97C505.454 1762.65 515.658 1774.53 518.193 1788.94L525.284 1829.27L533.344 1869.42Z" fill="url(#paint9_linear_1103_859)"/>
<path opacity="0.02" d="M144.303 2263.47C147.184 2277.82 141.998 2292.59 130.782 2302L99.4019 2328.3L68.6645 2355.36C57.6783 2365.03 42.2881 2367.92 28.5376 2362.91L-9.93351 2348.89L-48.7314 2335.79C-62.5987 2331.11 -72.8031 2319.24 -75.3375 2304.82L-82.4283 2264.49L-90.4888 2224.35C-93.3699 2210 -88.1841 2195.22 -76.968 2185.82L-45.5877 2159.51L-14.8503 2132.46C-3.86407 2122.79 11.5261 2119.89 25.2766 2124.9L63.7477 2138.93L102.546 2152.02C116.413 2156.7 126.617 2168.58 129.152 2182.99L136.243 2223.32L144.303 2263.47Z" fill="url(#paint10_linear_1103_859)"/>
<path opacity="0.04" d="M264.959 1641.65C273.758 1645.27 279.879 1653.4 280.92 1662.86L285.636 1705.72L291.384 1748.47C292.652 1757.9 288.669 1767.26 281 1772.89L246.233 1798.41L212.091 1824.76C204.56 1830.57 194.456 1831.81 185.746 1827.98L146.263 1810.63L106.373 1794.24C97.5737 1790.62 91.452 1782.49 90.4117 1773.03L85.6954 1730.16L79.9474 1687.42C78.6794 1677.99 82.662 1668.62 90.331 1663L125.098 1637.48L159.24 1611.13C166.771 1605.32 176.876 1604.08 185.585 1607.91L225.068 1625.26L264.959 1641.65Z" fill="url(#paint11_linear_1103_859)"/>
</g>
<defs>
<linearGradient id="paint0_linear_1103_859" x1="143.814" y1="341.8" x2="351.267" y2="553.659" gradientUnits="userSpaceOnUse">
<stop stop-color="white"/>
<stop offset="1" stop-color="white" stop-opacity="0"/>
</linearGradient>
<linearGradient id="paint1_linear_1103_859" x1="267.205" y1="79.2372" x2="337.319" y2="262.836" gradientUnits="userSpaceOnUse">
<stop stop-color="white"/>
<stop offset="1" stop-color="white" stop-opacity="0"/>
</linearGradient>
<linearGradient id="paint2_linear_1103_859" x1="-126.698" y1="510.244" x2="46.7946" y2="549.637" gradientUnits="userSpaceOnUse">
<stop stop-color="#FFCFE5" stop-opacity="0.29"/>
<stop offset="1" stop-color="white"/>
</linearGradient>
<linearGradient id="paint3_linear_1103_859" x1="-8.02738" y1="44.1477" x2="165.465" y2="83.5404" gradientUnits="userSpaceOnUse">
<stop stop-color="white" stop-opacity="0.07"/>
<stop offset="1" stop-color="white"/>
</linearGradient>
<linearGradient id="paint4_linear_1103_859" x1="350.845" y1="1121.39" x2="179.836" y2="1363.63" gradientUnits="userSpaceOnUse">
<stop stop-color="white"/>
<stop offset="1" stop-color="white" stop-opacity="0"/>
</linearGradient>
<linearGradient id="paint5_linear_1103_859" x1="253.934" y1="859.187" x2="324.048" y2="1042.79" gradientUnits="userSpaceOnUse">
<stop stop-color="white"/>
<stop offset="1" stop-color="white" stop-opacity="0"/>
</linearGradient>
<linearGradient id="paint6_linear_1103_859" x1="-139.971" y1="1500.19" x2="33.5221" y2="1539.59" gradientUnits="userSpaceOnUse">
<stop stop-color="#FFCFE5" stop-opacity="0.29"/>
<stop offset="1" stop-color="white"/>
</linearGradient>
<linearGradient id="paint7_linear_1103_859" x1="-21.9707" y1="824.148" x2="151.522" y2="863.54" gradientUnits="userSpaceOnUse">
<stop stop-color="white" stop-opacity="0.07"/>
<stop offset="1" stop-color="white"/>
</linearGradient>
<linearGradient id="paint8_linear_1103_859" x1="230.542" y1="2011.75" x2="437.994" y2="2223.61" gradientUnits="userSpaceOnUse">
<stop stop-color="white"/>
<stop offset="1" stop-color="white" stop-opacity="0"/>
</linearGradient>
<linearGradient id="paint9_linear_1103_859" x1="353.933" y1="1749.19" x2="424.047" y2="1932.79" gradientUnits="userSpaceOnUse">
<stop stop-color="white"/>
<stop offset="1" stop-color="white" stop-opacity="0"/>
</linearGradient>
<linearGradient id="paint10_linear_1103_859" x1="-35.1081" y1="2143.24" x2="35.0059" y2="2326.84" gradientUnits="userSpaceOnUse">
<stop stop-color="white"/>
<stop offset="1" stop-color="white" stop-opacity="0"/>
</linearGradient>
<linearGradient id="paint11_linear_1103_859" x1="78.7011" y1="1714.1" x2="252.194" y2="1753.49" gradientUnits="userSpaceOnUse">
<stop stop-color="white" stop-opacity="0.07"/>
<stop offset="1" stop-color="white"/>
</linearGradient>
<clipPath id="clip0_1103_859">
<rect width="480" height="2306" fill="white"/>
</clipPath>
</defs>
</svg>
