<svg width="478" height="1143" viewBox="0 0 478 1143" fill="none" xmlns="http://www.w3.org/2000/svg">
<g clip-path="url(#clip0_1223_1668)">
<circle cx="194.209" cy="1015.37" r="26.4145" transform="rotate(-87.3681 194.209 1015.37)" fill="#232323"/>
<path d="M-506.329 1011.34L-456.484 966.849L-332.67 972.541L-100.111 1223.25L-6.74286 1227.54L80.5367 1320.03L101.093 1320.98M63.6403 1242.88L18.232 1193.09L-86.2996 1188.29L-322.498 928.26L-447.327 922.521L-504.509 971.761M-503.063 940.3L-442.556 885.111L-397.902 887.164M-348.174 889.45L-303.519 891.503L-57.5452 1160.11L71.3433 1166.04L231.239 1338.15M263.516 1277.59L214.802 1275.35L88.9341 1137.35L-41.9842 1131.34L-342.132 802.264L-415.296 800.935L-500.217 878.393M-498.118 832.723L-413.196 755.266L-322.873 759.418L-14.0114 1098.04L102.699 1103.41L205.041 1215.61M372.247 1279.54L348.905 1278.47L161.071 1072.53L17.9742 1065.95L-319.934 695.481L-416.347 691.049L-494.899 762.697M-491.96 698.761L-438.884 650.35L-292.743 657.068L26.7693 1007.37L171.896 1014.04M-266.697 1079.29C-217.938 1132.98 -152.086 1205.47 -101.837 1260.8L-331.066 1009.48L-451.071 1003.96L-508.393 1056.25" stroke="white" stroke-opacity="0.04" stroke-width="2"/>
<path d="M374.591 -86L421.324 -38.2507V85.6942L181.562 329.52V422.987L93.1754 514.422V535M169.474 494L217.12 446.353V341.711L466.026 93.8217V-31.1391L414.213 -86M445.707 -86L503.616 -28.0913V16.6101M503.616 66.3913V111.093L246.583 369.142V498.167L82 665.797M143.972 695.259V646.494L276.045 514.422V383.365L590.987 68.4231L588.955 -4.72466L507.68 -86M553.397 -86L634.672 -4.72466V85.6942L310.587 409.78V526.613L203.2 634M147.02 803.965V780.598L344.113 583.506V440.258L698.677 85.6942V-10.8203L623.497 -86M687.501 -86L738.298 -35.2029V111.093L403.038 446.353V591.633M317.714 156.5C266.328 207.672 196.928 276.784 143.972 329.52L384.5 88.9926V-31.1391L329.639 -86" stroke="white" stroke-opacity="0.04" stroke-width="2"/>
<circle cx="63.4145" cy="685.1" r="26.4145" fill="#232323"/>
<circle cx="142.659" cy="721.674" r="25.4145" stroke="white" stroke-opacity="0.04" stroke-width="2"/>
<circle cx="187.36" cy="654.62" r="25.4145" stroke="white" stroke-opacity="0.04" stroke-width="2"/>
<circle cx="148.754" cy="827.332" r="26.4145" fill="#232323"/>
<circle cx="402.739" cy="613.985" r="26.4145" fill="#232323"/>
<circle cx="152.819" cy="514.422" r="26.4145" fill="#232323"/>
<circle cx="93.4145" cy="561.414" r="26.4145" fill="#232323"/>
<circle cx="504.334" cy="40.9907" r="25.4145" stroke="white" stroke-opacity="0.04" stroke-width="2"/>
<circle cx="126.403" cy="349.838" r="25.4145" stroke="white" stroke-opacity="0.04" stroke-width="2"/>
</g>
<defs>
<clipPath id="clip0_1223_1668">
<rect width="478" height="1143" fill="white"/>
</clipPath>
</defs>
</svg>
