<svg width="96" height="96" viewBox="0 0 96 96" fill="none" xmlns="http://www.w3.org/2000/svg">
<g clip-path="url(#clip0_844_3422)">
<path d="M47.9996 93.9841C73.3959 93.9841 93.9836 73.3964 93.9836 48.0001C93.9836 22.6038 73.3959 2.01611 47.9996 2.01611C22.6034 2.01611 2.01562 22.6038 2.01562 48.0001C2.01562 73.3964 22.6034 93.9841 47.9996 93.9841Z" fill="#FF66AA"/>
<g opacity="0.15">
<mask id="mask0_844_3422" style="mask-type:luminance" maskUnits="userSpaceOnUse" x="0" y="0" width="96" height="96">
<path d="M48 96C74.5097 96 96 74.5097 96 48C96 21.4903 74.5097 0 48 0C21.4903 0 0 21.4903 0 48C0 74.5097 21.4903 96 48 96Z" fill="white"/>
</mask>
<g mask="url(#mask0_844_3422)">
<path d="M-33.9834 99.808L48.0006 -42.208L129.985 99.808H-33.9834Z" fill="#F1F1F2"/>
<path d="M14.0166 133.984L96.0006 -8L177.985 133.984H14.0166Z" fill="#231F20"/>
<path d="M-139.136 108.288L-57.1517 -33.6963L24.8322 108.288H-139.136Z" fill="#808184"/>
<path d="M11.6484 42.6239L93.6324 -99.3921L175.616 42.6239H11.6484Z" fill="#929497"/>
<path d="M-79.168 113.6L2.81602 -28.3843L84.8 113.6H-79.168Z" fill="#636466"/>
<path d="M-40.0322 199.008L41.9518 56.9917L123.936 199.008H-40.0322Z" fill="#59595C"/>
<path d="M-60.7676 39.1041L-29.6316 -14.8159L1.50442 39.1041H-60.7676ZM-34.6876 159.616L-3.55158 105.696L27.5844 159.616H-34.6876Z" fill="#A7A8AB"/>
<path d="M34.9766 62.6558L66.1126 8.73584L97.2486 62.6558H34.9766Z" fill="#6D6E70"/>
<path d="M87.584 147.424L118.72 93.5039L149.824 147.424H87.584Z" fill="#A7A8AB"/>
<path d="M81.1842 89.8878L96.7362 62.9438L112.288 89.8878H81.1842ZM6.78418 120L37.9202 66.0798L69.0562 120H6.78418Z" fill="#221F1F"/>
<path d="M26.8167 -35.7119L3.68066 4.35208H65.9527L42.8167 -35.7119H26.8167ZM95.0407 -35.7119L87.4887 -22.6239H118.625L111.041 -35.7119H95.0407Z" fill="#808184"/>
<path d="M3.2959 98.4L34.4319 44.48L65.5679 98.4H3.2959Z" fill="#404041"/>
<path d="M67.5527 110.144L98.6567 56.2241L129.793 110.144H67.5527Z" fill="#808184"/>
<path d="M31.4238 25.5359L46.8158 -1.12012L62.2078 25.5359H31.4238Z" fill="#58595B"/>
<path d="M82.5605 20.864L97.9525 -5.79199L113.345 20.864H82.5605Z" fill="#221F1F"/>
<path d="M55.0723 75.1038L70.4643 48.4478L85.8563 75.1038H55.0723Z" fill="#404041"/>
<path d="M82.5605 68.5759L97.9525 41.9199L113.345 68.5759H82.5605Z" fill="#F1F1F2"/>
<path d="M-23.8401 17.2161L-8.44812 -9.43994L6.94388 17.2161H-23.8401ZM-39.3281 64.1281L-23.9361 37.4721L-8.54412 64.1281H-39.3281Z" fill="#A7A8AB"/>
<path d="M51.9043 29.1841L59.6163 15.8721L67.2963 29.1841H51.9043Z" fill="#BBBDBF"/>
<path d="M66.208 12.416L68.256 8.896L70.304 12.416H66.208Z" fill="white"/>
<path d="M1.24805 29.696L16.64 3.04004L32.032 29.696H1.24805Z" fill="#6D6E70"/>
<path d="M27.4561 98.2078L42.8481 71.5518L58.2401 98.2078H27.4561Z" fill="#A6A8AB"/>
<path d="M26.2402 76.192L32.0322 66.144L37.7922 76.192H26.2402Z" fill="#231F20"/>
<path d="M60.48 83.2959L68.16 69.9519L75.872 83.2959H60.48ZM58.752 45.5039L66.432 32.1919L74.144 45.5039H58.752Z" fill="#A7A8AB"/>
<path d="M64.3203 24.8957L79.7123 -1.76025L95.0723 24.8957H64.3203Z" fill="#F1F1F2"/>
<path d="M-7.61621 37.9519L7.77579 11.2959L23.1678 37.9519H-7.61621Z" fill="#A6A8AB"/>
<path d="M-3.51953 79.1037L2.33647 68.9277L8.19247 79.1037H-3.51953Z" fill="#59595C"/>
<path d="M76.9287 65.7917L82.7847 55.6157L88.6407 65.7917H76.9287Z" fill="#A6A8AB"/>
<path d="M42.1445 19.1357L48.0005 8.9917L53.8565 19.1357H42.1445Z" fill="white"/>
<path d="M42.1445 82.2717L48.0005 72.0957L53.8565 82.2717H42.1445Z" fill="#58595B"/>
<path d="M-14.3037 20.1599L-8.44771 9.98389L-2.55971 20.1599H-14.3037ZM68.2883 107.264L74.1443 97.1199L80.0003 107.264H68.2883Z" fill="#59595C"/>
<path d="M90.4004 35.3918L96.2564 25.2158L102.112 35.3918H90.4004Z" fill="#808184"/>
<path d="M6.49609 66.592L12.3521 56.416L18.2401 66.592H6.49609Z" fill="#BBBDBF"/>
<path d="M15.136 86.432L20.992 76.256L26.88 86.432H15.136ZM0.832031 45.664L6.72003 35.52L12.576 45.664H0.832031Z" fill="#F1F1F2"/>
<path d="M28.3838 31.5838L31.2958 26.5278L34.2398 31.5838H28.3838Z" fill="#59595C"/>
<path d="M8.25586 40.9281L11.1679 35.8721L14.1119 40.9281H8.25586Z" fill="#BBBDBF"/>
<path d="M26.4639 19.0079L29.4079 13.9199L32.3519 19.0079H26.4639Z" fill="#E6E7E8"/>
<path d="M27.9043 126.144L33.7603 115.968L39.6163 126.144H27.9043ZM157.344 84.1921L163.232 74.0161L169.088 84.1921H157.344Z" fill="#59595C"/>
<path d="M52.0645 11.8078L57.9205 1.63184L63.8085 11.8078H52.0645Z" fill="#808184"/>
<path d="M82.6885 33.0239L88.5445 22.8799L94.4005 33.0239H82.6885Z" fill="white"/>
<path d="M-39.168 100.768L-33.312 90.6242L-27.424 100.768H-39.168ZM80.864 92.9602L86.752 82.7842L92.608 92.9602H80.864Z" fill="#808184"/>
<path d="M83.8086 77.9518L86.7526 72.8638L89.6646 77.9518H83.8086Z" fill="#A7A8AB"/>
<path d="M59.2324 33.1198L62.7204 27.0718L66.2084 33.1198H59.2324Z" fill="#D0D2D3"/>
</g>
</g>
<path d="M24.0317 58.048C22.5277 58.048 21.2157 57.792 20.0957 57.312C18.9757 56.832 18.0477 56.128 17.3437 55.264C16.6077 54.4 16.0637 53.376 15.6797 52.192C15.2957 51.008 15.1357 49.76 15.1357 48.384C15.1357 47.008 15.3277 45.728 15.6797 44.544C16.0637 43.36 16.6077 42.304 17.3437 41.44C18.0797 40.576 19.0077 39.872 20.0957 39.36C21.2157 38.848 22.5277 38.592 24.0317 38.592C25.5357 38.592 26.8477 38.848 27.9677 39.36C29.0877 39.872 30.0157 40.544 30.7837 41.44C31.5197 42.304 32.0637 43.36 32.4477 44.544C32.7997 45.728 32.9917 47.008 32.9917 48.384C32.9917 49.76 32.7997 51.008 32.4477 52.192C32.0957 53.376 31.5517 54.4 30.7837 55.264C30.0477 56.128 29.1197 56.832 27.9677 57.312C26.8797 57.824 25.5357 58.048 24.0317 58.048ZM24.0317 54.176C25.3757 54.176 26.3357 53.664 26.9117 52.672C27.4877 51.68 27.7757 50.24 27.7757 48.384C27.7757 46.528 27.4877 45.088 26.9117 44.096C26.3357 43.104 25.3757 42.592 24.0317 42.592C22.7197 42.592 21.7597 43.104 21.1837 44.096C20.6077 45.088 20.2877 46.528 20.2877 48.384C20.2877 50.24 20.5757 51.68 21.1837 52.672C21.7597 53.696 22.7197 54.176 24.0317 54.176ZM40.6077 49.536C39.2637 49.152 38.2077 48.576 37.4717 47.84C36.7037 47.072 36.3517 45.952 36.3517 44.448C36.3517 42.624 36.9917 41.216 38.3037 40.16C39.6157 39.136 41.3757 38.624 43.6477 38.624C45.5289 38.6333 47.3931 38.9801 49.1517 39.648C49.0877 40.256 48.9917 40.928 48.7997 41.6C48.6077 42.272 48.3837 42.848 48.1277 43.36C47.5517 43.136 46.9117 42.912 46.2397 42.72C45.5357 42.528 44.7997 42.464 44.0637 42.464C43.2637 42.464 42.6237 42.592 42.1757 42.848C41.7277 43.104 41.5037 43.488 41.5037 44.064C41.5037 44.576 41.6637 44.96 41.9837 45.184C42.3037 45.408 42.7517 45.6 43.3597 45.792L45.4077 46.4C46.0797 46.592 46.6877 46.816 47.2317 47.104C47.7757 47.392 48.2237 47.712 48.6077 48.128C48.9917 48.544 49.2797 49.024 49.5037 49.632C49.7277 50.24 49.8237 50.976 49.8237 51.808C49.8237 52.704 49.6317 53.504 49.2797 54.272C48.905 55.0469 48.3577 55.7256 47.6797 56.256C46.9757 56.832 46.1117 57.248 45.1197 57.6C44.0101 57.9363 42.855 58.0982 41.6957 58.08C41.1197 58.08 40.6077 58.048 40.1277 58.016C39.6477 57.984 39.1997 57.92 38.7517 57.824C38.3037 57.728 37.8877 57.632 37.4397 57.504C37.0237 57.376 36.5437 57.216 36.0317 57.024C36.0637 56.384 36.1917 55.712 36.3837 55.072C36.5757 54.4 36.7997 53.76 37.0877 53.152C37.8877 53.472 38.6237 53.696 39.3277 53.856C40.0317 54.016 40.7677 54.08 41.5357 54.08C41.8557 54.08 42.2397 54.048 42.6237 53.984C43.0077 53.92 43.3917 53.824 43.7117 53.664C44.0317 53.504 44.3197 53.312 44.5437 53.056C44.7677 52.8 44.8957 52.48 44.8957 52.064C44.8957 51.488 44.7357 51.072 44.3837 50.816C44.0317 50.56 43.5517 50.336 42.9437 50.144L40.6077 49.536ZM53.1837 39.072C54.0477 38.944 54.8797 38.848 55.7437 38.848C56.5757 38.848 57.4397 38.912 58.3037 39.072V48.896C58.3037 49.888 58.3677 50.688 58.5277 51.328C58.6877 51.968 58.9117 52.48 59.2317 52.832C59.5517 53.216 59.9677 53.472 60.4477 53.632C60.9277 53.792 61.5037 53.856 62.1437 53.856C63.0397 53.856 63.7757 53.76 64.3837 53.6V39.072C65.2477 38.944 66.0797 38.848 66.9117 38.848C67.7437 38.848 68.6077 38.912 69.4717 39.072V56.928C68.7037 57.184 67.6797 57.44 66.4317 57.696C63.9722 58.1745 61.4468 58.2071 58.9757 57.792C57.8557 57.6 56.8637 57.184 55.9997 56.576C55.1357 55.968 54.4637 55.04 53.9837 53.856C53.4717 52.672 53.2157 51.072 53.2157 49.088V39.072H53.1837ZM74.2717 57.632C74.1437 56.736 74.0477 55.872 74.0477 55.008C74.0477 54.144 74.1117 53.248 74.2717 52.352C75.1677 52.224 76.0317 52.128 76.8957 52.128C77.7597 52.128 78.6557 52.192 79.5518 52.352C79.6797 53.248 79.7757 54.144 79.7757 54.976C79.7757 55.872 79.7117 56.736 79.5518 57.632C78.6557 57.76 77.7597 57.856 76.9277 57.856C76.0317 57.824 75.1677 57.76 74.2717 57.632ZM74.1437 31.808C75.0718 31.68 75.9997 31.584 76.8957 31.584C77.8237 31.584 78.7517 31.648 79.7117 31.808L79.3597 49.376C78.5277 49.504 77.7277 49.6 76.9597 49.6C76.1597 49.6 75.3277 49.536 74.5277 49.376L74.1437 31.808Z" fill="white"/>
<path d="M48 0C21.504 0 0 21.504 0 48C0 74.496 21.504 96 48 96C74.496 96 96 74.496 96 48C96 21.504 74.496 0 48 0ZM48 91.2C24.128 91.2 4.8 71.872 4.8 48C4.8 24.128 24.128 4.8 48 4.8C71.872 4.8 91.2 24.128 91.2 48C91.2 71.872 71.872 91.2 48 91.2Z" fill="white"/>
</g>
<defs>
<clipPath id="clip0_844_3422">
<rect width="96" height="96" fill="white"/>
</clipPath>
</defs>
</svg>
