<svg width="96" height="96" viewBox="0 0 96 96" fill="none" xmlns="http://www.w3.org/2000/svg">
<g clip-path="url(#clip0_844_3635)">
<path d="M48 0C38.5065 0 29.2262 2.81515 21.3326 8.08946C13.4391 13.3638 7.28681 20.8603 3.6538 29.6312C0.0207976 38.402 -0.929762 48.0532 0.922328 57.3643C2.77442 66.6754 7.34597 75.2282 14.0589 81.9411C20.7718 88.654 29.3246 93.2256 38.6357 95.0777C47.9468 96.9298 57.598 95.9792 66.3688 92.3462C75.1397 88.7132 82.6362 82.5609 87.9105 74.6674C93.1849 66.7738 96 57.4935 96 48C96 41.6965 94.7585 35.4548 92.3462 29.6312C89.934 23.8076 86.3983 18.5161 81.9411 14.0589C77.4839 9.60166 72.1925 6.06601 66.3688 3.65378C60.5452 1.24156 54.3035 0 48 0ZM68.64 36.528L46.704 65.328C46.2569 65.9089 45.6826 66.3796 45.0253 66.7041C44.368 67.0286 43.6451 67.1982 42.912 67.2C42.1829 67.2039 41.4625 67.0417 40.8055 66.7257C40.1485 66.4096 39.572 65.9481 39.12 65.376L27.408 50.448C26.6251 49.4423 26.2738 48.1668 26.4313 46.902C26.5888 45.6373 27.2423 44.4869 28.248 43.704C29.2537 42.9211 30.5292 42.5697 31.794 42.7273C33.0587 42.8848 34.2091 43.5383 34.992 44.544L42.816 54.528L60.96 30.528C61.3445 30.0237 61.8246 29.6001 62.3728 29.2814C62.921 28.9626 63.5267 28.755 64.1551 28.6703C64.7836 28.5856 65.4226 28.6255 66.0356 28.7878C66.6487 28.9501 67.2237 29.2315 67.728 29.616C68.2323 30.0005 68.6559 30.4806 68.9746 31.0288C69.2934 31.577 69.501 32.1826 69.5857 32.8111C69.6704 33.4396 69.6305 34.0786 69.4682 34.6916C69.3059 35.3046 69.0245 35.8797 68.64 36.384V36.528Z" fill="white"/>
</g>
<defs>
<clipPath id="clip0_844_3635">
<rect width="96" height="96" fill="white"/>
</clipPath>
</defs>
</svg>
