<svg width="432" height="628" viewBox="0 0 432 628" fill="none" xmlns="http://www.w3.org/2000/svg">
<g clip-path="url(#clip0_844_4027)">
<rect width="432" height="628" fill="#FFBCDA"/>
<path d="M207.834 -80.153C212.868 -83.141 219.132 -83.141 224.166 -80.153L243.52 -68.666L263.145 -57.6488C268.25 -54.783 271.382 -49.358 271.311 -43.5042L271.04 -21L271.311 1.5042C271.382 7.35802 268.25 12.783 263.145 15.6488L243.52 26.666L224.166 38.153C219.132 41.141 212.868 41.141 207.834 38.153L188.48 26.666L168.855 15.6488C163.75 12.783 160.618 7.35801 160.689 1.5042L160.96 -21L160.689 -43.5042C160.618 -49.358 163.75 -54.783 168.855 -57.6488L188.48 -68.666L207.834 -80.153Z" fill="#1B1B1B"/>
</g>
<defs>
<clipPath id="clip0_844_4027">
<rect width="432" height="628" fill="white"/>
</clipPath>
</defs>
</svg>
