<svg width="44" height="44" viewBox="0 0 44 44" fill="none" xmlns="http://www.w3.org/2000/svg">
<g clip-path="url(#clip0_937_697)">
<path d="M22 44C34.1503 44 44 34.1503 44 22C44 9.84974 34.1503 0 22 0C9.84974 0 0 9.84974 0 22C0 34.1503 9.84974 44 22 44Z" fill="#6441A4"/>
<path d="M12.9168 11.9453L11.4816 15.7738V31.075H16.741V33.9453H19.6113L22.4773 31.075H26.7828L32.5191 25.3387V11.9453H12.9168ZM14.8289 13.8574H30.6113V24.3805L27.264 27.7277H22.0003L19.1343 30.5938V27.7277H14.8289V13.8574ZM20.0882 23.4223H22.0003V17.6859H20.0882V23.4223ZM25.3476 23.4223H27.2597V17.6859H25.3476V23.4223Z" fill="white"/>
</g>
<defs>
<clipPath id="clip0_937_697">
<rect width="44" height="44" fill="white"/>
</clipPath>
</defs>
</svg>
