<svg width="96" height="96" viewBox="0 0 96 96" fill="none" xmlns="http://www.w3.org/2000/svg">
<circle cx="48" cy="48" r="48" fill="#D31717"/>
<path d="M42 69.1462L42.4693 74.5396C42.4693 74.5396 46.1564 74.9342 48.0335 75C49.7765 75 51.6537 74.8027 53.5307 74.5396C53.8659 72.6979 54 70.922 54 69.0804C54 67.3703 53.7989 65.5286 53.5307 63.687C51.6537 63.3581 47.9665 63.2265 47.9665 63.2265L42.4693 63.687L42 69.1462Z" fill="white"/>
<path d="M47.9665 21C46.0894 21 44.1453 21.1973 42.2011 21.4604L43.0056 57.57C44.6816 57.8989 46.4246 58.0304 48.1006 58.0304C49.7095 58.0304 51.3855 57.8331 53.1285 57.57L53.8659 21.4604C51.8548 21.1315 49.9106 21 47.9665 21Z" fill="white"/>
</svg>
