<svg width="192" height="192" viewBox="0 0 192 192" fill="none" xmlns="http://www.w3.org/2000/svg">
<g clip-path="url(#clip0_844_6392)">
<path d="M85.792 6.05874C92.0849 2.32375 99.9151 2.32375 106.208 6.05875L137.28 24.5009L168.787 42.189C175.168 45.7713 179.084 52.5525 178.995 59.8697L178.56 96L178.995 132.13C179.084 139.448 175.168 146.229 168.787 149.811L137.28 167.499L106.208 185.941C99.9151 189.676 92.0849 189.676 85.792 185.941L54.72 167.499L23.2126 149.811C16.8316 146.229 12.9164 139.448 13.0046 132.13L13.44 96L13.0046 59.8697C12.9164 52.5525 16.8316 45.7713 23.2126 42.189L54.72 24.5009L85.792 6.05874Z" fill="url(#paint0_linear_844_6392)"/>
<path d="M105.832 39.2302C111.644 35.9362 118.758 35.9362 124.57 39.2302L147.217 52.0666L169.657 65.2614C175.416 68.6474 178.973 74.8087 179.026 81.4888L179.233 107.52L179.026 133.551C178.973 140.231 175.416 146.392 169.657 149.778L147.217 162.973L124.57 175.81C118.758 179.104 111.644 179.104 105.832 175.81L83.1848 162.973L60.7447 149.778C54.9861 146.392 51.4289 140.231 51.3758 133.551L51.1688 107.52L51.3758 81.4888C51.4289 74.8088 54.9861 68.6474 60.7447 65.2614L83.1848 52.0666L105.832 39.2302Z" fill="white"/>
<path d="M85.5132 113.838C83.6071 113.838 81.9444 113.511 80.525 112.897C79.1055 112.283 77.9295 111.383 77.0373 110.279C76.1045 109.174 75.4151 107.865 74.9284 106.351C74.4418 104.837 74.239 103.241 74.239 101.482C74.239 99.7222 74.4823 98.0855 74.9284 96.5716C75.4151 95.0577 76.1045 93.7075 77.0373 92.6027C77.97 91.498 79.1461 90.5978 80.525 89.9432C81.9444 89.2885 83.6071 88.9612 85.5132 88.9612C87.4192 88.9612 89.0819 89.2885 90.5014 89.9432C91.9208 90.5978 93.0968 91.4571 94.0701 92.6027C95.0029 93.7075 95.6923 95.0577 96.179 96.5716C96.6251 98.0855 96.8684 99.7222 96.8684 101.482C96.8684 103.241 96.6251 104.837 96.179 106.351C95.7329 107.865 95.0435 109.174 94.0701 110.279C93.1374 111.383 91.9613 112.283 90.5014 112.897C89.1225 113.552 87.4192 113.838 85.5132 113.838ZM85.5132 108.887C87.2164 108.887 88.4331 108.233 89.1631 106.964C89.893 105.696 90.258 103.855 90.258 101.482C90.258 99.1084 89.893 97.2672 89.1631 95.9988C88.4331 94.7304 87.2164 94.0757 85.5132 94.0757C83.8504 94.0757 82.6338 94.7304 81.9038 95.9988C81.1738 97.2672 80.7683 99.1084 80.7683 101.482C80.7683 103.855 81.1333 105.696 81.9038 106.964C82.6338 108.274 83.8504 108.887 85.5132 108.887ZM106.52 102.955C104.817 102.464 103.479 101.727 102.546 100.786C101.573 99.804 101.127 98.3719 101.127 96.4489C101.127 94.1166 101.938 92.3163 103.6 90.9661C105.263 89.6567 107.494 89.0021 110.373 89.0021C112.757 89.014 115.12 89.4574 117.348 90.3114C117.267 91.0888 117.146 91.9481 116.902 92.8073C116.659 93.6665 116.375 94.403 116.051 95.0577C115.321 94.7713 114.51 94.4849 113.658 94.2394C112.766 93.9939 111.833 93.912 110.9 93.912C109.886 93.912 109.075 94.0757 108.508 94.403C107.94 94.7304 107.656 95.2214 107.656 95.9579C107.656 96.6125 107.859 97.1035 108.264 97.3899C108.67 97.6763 109.238 97.9219 110.008 98.1674L112.604 98.9448C113.455 99.1903 114.226 99.4767 114.915 99.8449C115.605 100.213 116.172 100.622 116.659 101.154C117.146 101.686 117.511 102.3 117.795 103.077C118.078 103.855 118.2 104.796 118.2 105.86C118.2 107.005 117.957 108.028 117.511 109.01C117.036 110.001 116.342 110.869 115.483 111.547C114.591 112.283 113.496 112.815 112.239 113.265C110.832 113.695 109.368 113.902 107.899 113.879C107.169 113.879 106.52 113.838 105.912 113.797C105.304 113.756 104.736 113.675 104.168 113.552C103.6 113.429 103.073 113.306 102.505 113.143C101.978 112.979 101.37 112.774 100.721 112.529C100.762 111.711 100.924 110.851 101.167 110.033C101.411 109.174 101.694 108.356 102.059 107.578C103.073 107.987 104.006 108.274 104.898 108.478C105.79 108.683 106.723 108.765 107.696 108.765C108.102 108.765 108.589 108.724 109.075 108.642C109.562 108.56 110.049 108.437 110.454 108.233C110.86 108.028 111.225 107.783 111.509 107.455C111.792 107.128 111.955 106.719 111.955 106.187C111.955 105.45 111.752 104.919 111.306 104.591C110.86 104.264 110.251 103.977 109.481 103.732L106.52 102.955ZM122.458 89.5749C123.553 89.4113 124.608 89.2885 125.703 89.2885C126.757 89.2885 127.852 89.3703 128.947 89.5749V102.136C128.947 103.405 129.028 104.428 129.231 105.246C129.434 106.064 129.718 106.719 130.123 107.169C130.529 107.66 131.056 107.987 131.664 108.192C132.272 108.396 133.002 108.478 133.814 108.478C134.949 108.478 135.882 108.356 136.652 108.151V89.5749C137.747 89.4113 138.802 89.2885 139.856 89.2885C140.911 89.2885 142.006 89.3703 143.1 89.5749V112.406C142.127 112.734 140.829 113.061 139.248 113.388C136.131 114 132.93 114.042 129.799 113.511C128.379 113.265 127.122 112.734 126.027 111.956C124.932 111.179 124.08 109.992 123.472 108.478C122.823 106.964 122.499 104.919 122.499 102.382V89.5749H122.458ZM149.184 113.306C149.021 112.161 148.9 111.056 148.9 109.951C148.9 108.847 148.981 107.701 149.184 106.555C150.319 106.392 151.414 106.269 152.509 106.269C153.604 106.269 154.74 106.351 155.875 106.555C156.037 107.701 156.159 108.847 156.159 109.91C156.159 111.056 156.078 112.161 155.875 113.306C154.74 113.47 153.604 113.593 152.55 113.593C151.414 113.552 150.319 113.47 149.184 113.306ZM149.021 80.2869C150.198 80.1232 151.374 80.0005 152.509 80.0005C153.685 80.0005 154.861 80.0823 156.078 80.2869L155.632 102.75C154.577 102.914 153.564 103.036 152.59 103.036C151.576 103.036 150.522 102.955 149.508 102.75L149.021 80.2869Z" fill="#DF5191"/>
<rect x="90.9265" y="121.066" width="3.16663" height="12.9101" fill="#FB86BA"/>
<rect x="90.9265" y="121.066" width="3.16663" height="12.9101" fill="#FB86BA"/>
<rect x="118.94" y="121.066" width="3.16663" height="12.9101" fill="#FB86BA"/>
<rect x="108.709" y="126.913" width="3.16663" height="7.06402" fill="#FB86BA"/>
<rect x="97.9922" y="126.182" width="2.67945" height="7.06402" transform="rotate(90 97.9922 126.182)" fill="#FB86BA"/>
<path d="M98.9644 121.188L102.618 121.188L97.0904 128.765L94.7471 127.124L98.9644 121.188Z" fill="#FB86BA"/>
<path d="M102.74 133.977L99.0863 133.977L95.0671 127.887L97.6248 126.426L102.74 133.977Z" fill="#FB86BA"/>
<path d="M113.482 121.252L116.869 121.252L111.866 129.773L109.389 128.342L113.482 121.252Z" fill="#FB86BA"/>
<path d="M103.349 121.066L107.003 121.066L110.901 128.13L108.708 129.714L103.349 121.066Z" fill="#FB86BA"/>
<path d="M134.773 121.071L138.356 121.071L133.068 133.976L131.241 133.976L131.241 129.835L134.773 121.071Z" fill="#FB86BA"/>
<path d="M124.908 120.944L128.319 120.944L131.851 129.835L132.338 133.976L130.024 133.976L124.908 120.944Z" fill="#FB86BA"/>
</g>
<defs>
<linearGradient id="paint0_linear_844_6392" x1="48.96" y1="165.44" x2="144.96" y2="38.4" gradientUnits="userSpaceOnUse">
<stop stop-color="#DE508F"/>
<stop offset="1" stop-color="#FF8EC1"/>
</linearGradient>
<clipPath id="clip0_844_6392">
<rect width="192" height="192" fill="white"/>
</clipPath>
</defs>
</svg>
